<?xml version="1.0" standalone="no"?>
<!DOCTYPE svg PUBLIC "-//W3C//DTD SVG 20010904//EN"
 "http://www.w3.org/TR/2001/REC-SVG-20010904/DTD/svg10.dtd">
<svg version="1.0" xmlns="http://www.w3.org/2000/svg"
 width="1536.000000pt" height="1504.000000pt" viewBox="0 0 1536.000000 1504.000000"
 preserveAspectRatio="xMidYMid meet">

<g transform="translate(0.000000,1504.000000) scale(0.100000,-0.100000)"
fill="#000000" stroke="none">
<path d="M0 7520 l0 -7520 1159 0 c638 0 1161 3 1163 8 5 11 290 155 438 220
166 73 415 174 524 212 77 27 371 120 380 120 2 0 7 -11 10 -24 6 -26 113
-167 150 -199 11 -10 14 -15 6 -11 -13 7 -13 5 -1 -9 7 -9 25 -17 40 -17 14 0
50 -11 79 -25 28 -13 52 -20 52 -16 0 5 -14 14 -30 21 -17 7 -29 15 -26 17 2
3 14 -1 26 -7 18 -10 24 -9 31 1 6 10 9 2 9 -21 1 -19 13 -60 28 -90 23 -46
36 -59 77 -79 l49 -23 -47 -18 c-51 -20 -77 -37 -77 -51 0 -13 7747 -12 7755
1 3 6 1 10 -5 10 -6 0 -24 10 -39 21 -27 19 -48 22 -253 30 -215 8 -387 5
-475 -6 -48 -7 -64 8 -31 27 17 10 101 14 328 16 169 2 309 8 314 13 6 5 19 9
30 10 13 0 4 7 -22 16 -23 8 -40 19 -36 24 3 5 -4 9 -15 9 -12 0 -21 5 -21 10
0 6 -13 10 -29 10 -16 0 -31 6 -34 13 -4 11 -128 77 -166 89 -9 2 -1 11 21 21
59 28 66 43 33 77 -27 29 -28 30 -11 49 10 11 30 21 44 23 19 2 28 11 33 32 9
34 43 72 82 93 25 13 34 12 80 -3 87 -28 319 -138 521 -245 482 -257 608 -328
600 -341 -3 -5 585 -8 1305 -8 l1311 0 0 7520 0 7520 -7680 0 -7680 0 0 -7520z
m7865 6564 c126 -84 281 -210 277 -224 -1 -6 2 -9 7 -8 5 2 49 -31 98 -72 48
-42 142 -119 209 -172 111 -89 244 -205 269 -233 6 -7 84 -78 176 -158 188
-165 219 -197 255 -269 l26 -50 -59 58 c-99 98 -155 140 -533 393 -215 144
-362 236 -457 286 l-72 38 -56 -13 -55 -13 198 -110 c314 -174 818 -517 952
-648 38 -37 78 -85 90 -108 11 -23 36 -66 54 -94 40 -63 103 -209 163 -377 24
-69 64 -177 88 -240 24 -63 68 -187 99 -276 30 -88 75 -202 100 -252 40 -83
43 -96 34 -125 -10 -30 -25 -162 -27 -235 -1 -19 -5 -31 -11 -27 -15 9 -12
-11 4 -27 7 -8 30 -56 51 -108 21 -52 42 -101 48 -108 5 -7 7 -15 4 -18 -3 -3
-13 13 -23 35 -9 22 -21 38 -26 35 -4 -3 -5 1 -3 8 3 8 -1 22 -9 33 -15 19
-15 19 -16 -8 0 -16 5 -38 12 -50 10 -19 9 -20 -4 -10 -8 7 -23 30 -32 52 -15
31 -26 41 -59 51 -23 6 -132 45 -242 85 -110 40 -233 80 -273 90 -72 17 -74
17 -133 -4 -32 -12 -84 -37 -115 -54 l-56 -32 73 -66 c40 -37 78 -65 84 -62 7
2 18 -4 26 -14 13 -16 12 -17 -3 -4 -22 17 -24 -2 -3 -19 11 -9 19 -10 26 -3
6 6 19 8 29 6 15 -4 16 -8 7 -18 -9 -9 -14 -10 -20 -1 -6 7 -7 6 -5 -4 3 -8
19 -17 37 -21 17 -4 35 -10 39 -14 4 -3 -7 -4 -23 0 -28 6 -29 5 -12 -9 11 -8
25 -12 33 -9 10 3 12 0 8 -10 -4 -12 0 -14 18 -10 18 4 20 2 8 -6 -11 -8 11
-35 116 -138 161 -159 190 -199 288 -393 73 -144 123 -233 233 -418 58 -97 55
-110 -7 -27 -28 37 -50 64 -50 60 0 -9 108 -176 120 -185 3 -3 16 -22 29 -42
12 -21 27 -38 32 -38 4 0 6 -7 3 -15 -6 -14 6 -20 30 -16 5 1 6 -5 2 -14 -3
-9 -2 -14 3 -11 5 3 14 -1 21 -9 7 -8 9 -15 4 -15 -5 0 -4 -4 1 -8 15 -10 50
-66 47 -74 -1 -5 2 -8 7 -8 4 0 24 -24 43 -52 53 -81 124 -215 105 -200 -9 8
-19 23 -23 35 -4 12 -12 26 -18 32 -45 47 -154 175 -219 259 -93 122 -170 219
-177 226 -3 3 -34 43 -69 90 -36 47 -66 87 -68 89 -2 2 -6 2 -9 -2 -5 -4 114
-171 161 -224 5 -7 33 -42 60 -79 63 -84 302 -379 364 -449 14 -16 40 -57 57
-90 17 -33 39 -74 50 -92 16 -27 17 -36 6 -66 -9 -25 -9 -42 -2 -61 14 -39 30
-224 30 -360 0 -132 -10 -179 -69 -336 -52 -140 -62 -160 -74 -153 -6 3 -7 1
-3 -5 8 -14 -28 -84 -39 -74 -5 4 -5 -1 -2 -11 4 -10 3 -16 -2 -12 -8 4 -22
-20 -26 -45 0 -3 -6 -15 -14 -28 -11 -20 -15 -21 -29 -10 -15 12 -16 11 -3 -5
12 -15 10 -22 -11 -55 -116 -172 -253 -300 -613 -572 -132 -99 -270 -213 -315
-260 -8 -9 -42 -37 -75 -63 -33 -26 -66 -52 -73 -58 -23 -19 -297 -124 -587
-225 -74 -26 -295 -84 -317 -83 -18 0 44 24 116 44 32 9 56 19 52 22 -3 3 -19
0 -35 -7 -16 -6 -34 -9 -39 -6 -6 3 -39 -3 -74 -14 -93 -29 -94 -24 -2 14 45
18 127 56 183 83 55 28 101 47 101 43 0 -4 -15 -15 -32 -24 l-33 -17 40 6 c34
5 37 4 20 -6 -34 -21 -42 -49 -13 -49 6 0 8 3 5 6 -3 4 4 14 16 24 25 19 186
89 267 116 30 10 59 22 65 26 5 4 15 8 23 8 8 0 60 22 116 49 74 36 118 65
164 109 34 33 62 65 62 71 0 16 -2 15 -52 -32 -25 -23 -65 -53 -89 -65 -24
-13 -62 -34 -83 -48 -33 -23 -38 -24 -32 -8 5 17 5 17 -7 3 -18 -24 -86 -55
-135 -63 -41 -6 -43 -5 -27 10 9 9 23 27 31 40 10 14 21 21 31 17 11 -4 14 -2
9 5 -4 7 -2 12 5 12 6 0 9 8 6 20 -3 11 -2 18 3 15 4 -3 10 2 14 10 3 8 12 15
19 15 8 0 20 7 27 15 7 8 16 13 20 10 5 -3 10 -1 12 3 3 9 138 91 288 176 88
50 235 151 282 194 16 14 31 21 39 17 7 -5 10 -4 6 2 -9 14 29 47 44 37 7 -4
10 -3 6 3 -4 6 37 44 91 84 170 129 269 227 374 367 73 98 203 335 194 356 -2
6 -5 3 -5 -6 -1 -10 -5 -18 -10 -18 -5 0 -23 -30 -41 -67 -27 -57 -111 -195
-130 -213 -3 -3 -18 -23 -33 -46 -15 -22 -41 -54 -59 -70 -31 -29 -30 -17 2
21 30 35 88 139 95 170 7 26 4 24 -25 -17 -41 -61 -57 -72 -32 -22 11 22 36
78 56 126 21 48 61 132 91 186 29 55 72 142 95 195 23 52 50 103 60 112 37 33
53 98 47 183 -10 139 -35 190 -161 330 -54 59 -283 223 -616 441 -96 63 -191
127 -211 143 l-37 28 25 82 c36 122 53 221 52 296 -1 62 -2 64 -9 27 -4 -22
-14 -74 -20 -115 -7 -41 -26 -114 -42 -163 -16 -49 -27 -96 -23 -105 4 -11 -3
-8 -19 8 l-24 25 29 90 c17 50 32 110 35 135 3 33 -7 11 -38 -80 -23 -69 -43
-126 -44 -128 -1 -2 -19 8 -41 22 -21 14 -55 37 -76 51 -26 18 -36 31 -33 43
9 32 56 383 56 417 -1 51 -19 -19 -35 -135 -9 -69 -23 -154 -31 -189 -8 -35
-12 -73 -8 -84 6 -20 6 -20 -24 -1 -17 10 -31 22 -31 27 -3 26 0 48 7 44 4 -3
8 27 10 65 1 39 8 80 14 92 13 24 59 208 54 214 -9 9 -94 -280 -101 -341 -5
-55 -9 -66 -20 -57 -8 6 -12 23 -9 38 4 26 3 26 -9 6 -6 -12 -18 -19 -25 -17
-8 3 -10 9 -4 16 35 45 113 380 93 400 -7 7 -13 3 -20 -15 -21 -54 -101 -316
-101 -329 -1 -40 -17 -42 -73 -8 -46 27 -54 36 -46 50 5 10 9 31 9 48 0 16 5
53 12 82 9 37 9 54 2 56 -8 3 -6 24 4 68 15 62 15 66 -4 79 -23 17 -29 14 -16
-10 6 -11 6 -29 1 -48 -5 -17 -14 -58 -19 -92 -11 -66 -37 -127 -50 -119 -11
7 -2 35 11 35 5 0 9 19 9 43 l-1 42 -21 -44 c-31 -64 -33 -37 -4 65 13 49 28
106 31 126 5 28 11 35 23 31 13 -5 13 -2 -3 14 -20 20 -20 20 -26 -6 -4 -14
-23 -88 -43 -164 -20 -76 -34 -143 -31 -148 4 -5 26 -20 51 -35 24 -14 44 -28
44 -30 0 -7 -58 24 -120 64 -98 63 -485 232 -530 232 -13 0 -20 7 -20 20 0 19
-25 26 -82 22 -9 -1 -22 5 -28 13 -7 8 -21 15 -30 15 -30 0 -50 11 -50 27 0
19 -12 17 -235 -31 -93 -21 -249 -51 -345 -67 -486 -81 -555 -101 -727 -209
-113 -71 -189 -134 -377 -319 -72 -69 -134 -125 -139 -123 -5 1 -6 -2 -3 -7 6
-10 -21 -37 -29 -29 -6 5 -42 282 -47 358 -3 36 -6 41 -13 26 -5 -13 -2 -79 9
-180 10 -89 20 -180 23 -203 4 -39 2 -44 -22 -53 -40 -15 -58 -13 -51 6 10 27
-6 374 -17 367 -6 -4 -8 -73 -3 -194 4 -124 3 -190 -4 -194 -5 -3 -10 -28 -10
-54 0 -40 -4 -51 -24 -64 -57 -37 -318 -280 -489 -455 -120 -123 -176 -207
-218 -329 -10 -29 -25 -63 -33 -75 -27 -38 -19 -63 44 -132 33 -37 60 -70 60
-75 0 -4 28 -38 63 -74 35 -37 61 -67 59 -67 -3 0 23 -27 57 -60 60 -58 81
-71 81 -50 0 6 -5 10 -11 10 -5 0 -8 4 -5 8 2 4 0 14 -6 22 -8 12 -9 12 -4 -3
3 -11 2 -16 -4 -12 -6 3 -10 11 -10 17 0 15 -128 147 -135 139 -3 -3 -3 3 1
14 6 14 4 17 -8 13 -9 -4 -15 -1 -14 5 0 7 -3 13 -8 14 -5 1 -17 14 -27 29
-14 22 -15 31 -7 42 9 10 8 16 -2 22 -8 5 -11 12 -7 17 9 9 27 -15 27 -37 0
-8 37 -58 81 -110 86 -101 159 -173 159 -158 0 5 5 6 10 3 6 -4 7 -11 4 -17
-4 -6 -2 -8 3 -5 10 6 76 -75 228 -278 33 -43 89 -109 123 -147 39 -41 61 -72
56 -79 -4 -8 -3 -9 4 -5 12 7 99 -81 94 -96 -1 -5 2 -7 8 -3 5 3 34 -14 63
-40 28 -25 99 -79 157 -119 58 -41 104 -79 102 -86 -1 -6 2 -9 8 -5 6 4 33
-10 61 -30 36 -27 47 -40 39 -49 -7 -9 -6 -13 5 -13 8 0 12 4 9 9 -9 14 12 9
37 -10 13 -10 70 -47 126 -81 56 -35 100 -68 96 -74 -3 -6 -1 -7 6 -3 6 4 27
-2 46 -14 43 -26 46 -36 5 -15 -16 8 -41 15 -56 15 -19 0 -25 4 -20 15 6 18 5
18 -28 5 -20 -7 -26 -6 -26 5 0 20 -20 29 -33 16 -9 -9 -7 -11 8 -6 16 6 17 5
5 -4 -24 -17 -42 -13 -35 8 3 11 0 23 -6 27 -8 5 -10 2 -7 -8 8 -19 -24 -39
-43 -27 -11 7 -11 9 4 9 9 0 17 5 17 11 0 6 -7 9 -15 5 -8 -3 -15 -1 -15 4 0
6 5 10 12 10 6 0 9 3 5 6 -3 3 -12 2 -19 -2 -7 -5 -24 -9 -36 -9 -21 -1 -22 1
-8 11 15 11 15 12 1 18 -9 3 -14 2 -11 -3 11 -17 -24 -20 -36 -3 -7 9 -20 18
-28 20 -18 4 -75 39 -93 56 -6 7 -20 15 -30 19 -9 3 -16 12 -15 19 2 7 -5 12
-15 13 -10 0 -22 7 -27 15 -5 8 -10 11 -10 7 0 -5 -17 4 -37 21 -21 16 -66 48
-101 71 -37 25 -60 47 -56 53 4 7 3 8 -4 4 -15 -9 -64 23 -55 37 3 6 1 7 -6 3
-27 -17 -408 302 -396 333 3 8 3 12 -1 9 -9 -10 -95 62 -88 73 3 5 0 8 -8 7
-7 -2 -12 3 -10 10 1 8 -2 11 -7 8 -9 -6 -42 23 -96 85 -88 100 -124 147 -117
153 4 4 0 6 -8 4 -9 -2 -14 4 -13 15 0 10 -1 16 -5 13 -5 -6 -31 24 -32 37 0
5 5 5 12 1 7 -4 8 -3 4 5 -4 6 -11 9 -16 6 -13 -8 -61 81 -54 102 4 13 3 14
-4 5 -7 -11 -10 -10 -15 5 -3 10 -15 43 -26 73 -24 63 -24 63 -11 55 13 -8 13
16 -1 35 -9 12 -10 11 -4 -5 4 -13 3 -17 -4 -10 -13 14 -41 154 -41 208 0 24
4 68 10 98 10 56 30 226 36 314 5 57 19 142 29 168 4 9 3 17 -3 17 -6 0 -14
-20 -18 -45 -3 -25 -9 -44 -11 -41 -3 3 2 47 10 98 9 51 18 158 22 238 5 142
23 243 60 355 48 142 260 680 281 712 11 17 12 33 5 65 -17 79 -23 186 -13
220 6 18 13 49 16 69 4 19 12 44 20 54 12 16 16 17 29 6 9 -7 20 -10 26 -7 5
3 26 59 46 123 42 134 133 416 175 543 15 47 57 164 93 260 170 457 328 800
466 1011 72 111 91 143 91 154 0 13 -166 -169 -213 -234 -61 -83 -68 -89 -32
-26 98 175 180 259 427 442 110 81 233 175 272 208 40 34 117 89 172 123 54
35 129 84 165 110 37 26 111 79 165 117 55 39 122 85 150 103 42 27 111 88 79
70 -37 -21 -293 -179 -350 -218 -88 -58 -108 -69 -70 -35 55 48 329 228 400
262 72 34 95 40 95 23 0 -5 5 -10 10 -10 6 0 10 7 10 15 0 8 1 15 3 15 1 0 20
7 42 15 22 8 51 12 64 9 13 -3 74 -39 136 -80z m1807 -3136 c-7 -7 -12 -8 -12
-2 0 14 12 26 19 19 2 -3 -1 -11 -7 -17z m142 -84 c3 -8 2 -12 -4 -9 -6 3 -10
10 -10 16 0 14 7 11 14 -7z m4604 -161 c2 -65 2 -116 -1 -113 -2 3 -7 55 -10
117 -3 61 -8 118 -12 125 -6 10 -5 11 5 1 9 -9 15 -50 18 -130z m365 99 c-6
-4 -13 -25 -16 -47 -4 -40 -4 -40 -5 8 -2 39 1 47 16 47 11 0 13 -3 5 -8z
m-106 -109 c-2 -21 -4 -4 -4 37 0 41 2 58 4 38 2 -21 2 -55 0 -75z m-187 87
c0 -5 -5 -10 -11 -10 -5 0 -7 5 -4 10 3 6 8 10 11 10 2 0 4 -4 4 -10z m-683
-82 c-2 -18 -4 -6 -4 27 0 33 2 48 4 33 2 -15 2 -42 0 -60z m1000 45 c-3 -10
-5 -4 -5 12 0 17 2 24 5 18 2 -7 2 -21 0 -30z m-912 -111 c-4 -46 -9 -81 -12
-79 -2 3 -1 54 4 114 4 59 9 95 11 78 2 -16 1 -67 -3 -113z m449 122 c21 -55
-5 -135 -43 -133 -11 0 -8 3 6 9 25 10 36 41 31 91 -3 30 -6 34 -33 34 l-30 0
0 -68 c0 -37 -3 -67 -7 -67 -14 0 -9 138 5 143 27 11 65 6 71 -9z m243 -36
c-2 -13 -4 -5 -4 17 -1 22 1 32 4 23 2 -10 2 -28 0 -40z m-419 -33 c-2 -41 -7
-60 -18 -63 -13 -5 -13 -3 -2 11 9 11 13 35 10 71 -1 30 1 51 5 47 4 -4 7 -34
5 -66z m-85 -7 c2 -26 1 -45 -4 -42 -5 3 -9 29 -8 57 1 59 5 54 12 -15z m741
16 c3 -8 2 -12 -4 -9 -6 3 -10 10 -10 16 0 14 7 11 14 -7z m-817 -51 c-3 -10
-5 -4 -5 12 0 17 2 24 5 18 2 -7 2 -21 0 -30z m-40 -5 c-3 -8 -6 -5 -6 6 -1
11 2 17 5 13 3 -3 4 -12 1 -19z m915 -13 c2 -19 0 -35 -4 -35 -4 0 -8 16 -8
35 0 19 2 35 4 35 2 0 6 -16 8 -35z m-305 -37 c-3 -7 -5 -2 -5 12 0 14 2 19 5
13 2 -7 2 -19 0 -25z m91 -9 c-7 -5 -20 -8 -28 -8 -8 0 -5 4 8 9 12 5 23 17
23 27 1 16 2 16 6 -1 3 -10 -1 -22 -9 -27z m-871 -21 c-3 -7 -5 -2 -5 12 0 14
2 19 5 13 2 -7 2 -19 0 -25z m820 6 c-3 -3 -12 -4 -19 -1 -8 3 -5 6 6 6 11 1
17 -2 13 -5z m-6872 -74 c3 -5 -14 -19 -37 -31 l-43 -21 34 31 c39 35 38 34
46 21z m2343 -447 c44 -110 87 -230 96 -265 31 -128 41 -358 15 -358 -5 0 -6
-15 -3 -32 11 -69 -66 145 -86 239 -22 100 -104 364 -145 463 -45 111 -47 123
-30 192 25 98 25 98 50 28 13 -36 60 -156 103 -267z m-92 -114 c50 -147 95
-301 90 -306 -4 -4 -129 373 -141 422 -14 62 7 14 51 -116z m-1459 -178 c0
-11 -5 -18 -9 -15 -4 3 -5 11 -1 19 7 21 12 19 10 -4z m-1582 -41 c-3 -5 -16
-10 -28 -9 -20 1 -20 2 3 9 14 4 26 8 28 9 2 1 0 -3 -3 -9z m-117 -22 c17 -13
20 -19 9 -15 -10 4 -23 7 -28 7 -6 0 -8 4 -5 9 4 5 0 12 -6 14 -7 3 -9 6 -5 6
5 1 21 -9 35 -21z m296 -9 c-64 -71 -202 -86 -329 -35 -93 38 -109 54 -20 20
94 -35 150 -45 206 -38 51 7 149 57 149 76 0 6 3 8 7 5 3 -4 -2 -16 -13 -28z
m2300 -165 c3 -8 2 -12 -4 -9 -6 3 -10 10 -10 16 0 14 7 11 14 -7z m-4427
-276 c-3 -8 -6 -5 -6 6 -1 11 2 17 5 13 3 -3 4 -12 1 -19z m5114 -630 c-17
-18 -34 -41 -37 -50 -3 -10 -9 -18 -13 -18 -3 0 -15 -14 -25 -31 -10 -17 -21
-28 -24 -25 -7 8 87 145 108 156 26 15 23 2 -9 -32z m28 -30 c-29 -59 -131
-220 -135 -215 -7 7 57 131 104 203 50 76 67 83 31 12z m-4989 -12 c0 -3 -4
-8 -10 -11 -5 -3 -10 -1 -10 4 0 6 5 11 10 11 6 0 10 -2 10 -4z m5265 -239
c65 -44 194 -174 195 -196 0 -15 -15 -6 -99 55 -25 19 -66 48 -91 66 -69 49
-110 90 -110 111 0 25 29 16 105 -36z m-5305 -80 c0 -18 -7 -60 -16 -92 -34
-134 -95 -537 -123 -825 l-8 -85 -2 67 c-1 77 -24 144 -52 153 -10 4 -19 15
-19 25 0 20 -16 36 -22 22 -1 -5 -19 -2 -38 6 -39 16 -150 22 -149 8 1 -12
-29 -28 -40 -22 -5 3 -12 -6 -15 -20 -4 -15 -9 -24 -11 -22 -3 2 0 20 5 39 9
32 8 33 -6 14 -11 -14 -14 -33 -10 -65 4 -37 3 -41 -5 -20 -13 33 45 469 69
520 25 53 26 58 3 24 -17 -24 -58 -48 -203 -114 -206 -93 -226 -101 -183 -72
17 11 53 41 80 68 61 58 121 97 245 159 52 26 110 59 128 73 29 22 346 188
365 191 4 1 7 -14 7 -32z m5225 14 c3 -5 1 -12 -5 -16 -5 -3 -10 1 -10 9 0 18
6 21 15 7z m29 -26 c-4 -8 -10 -12 -15 -9 -11 6 -2 24 11 24 5 0 7 -7 4 -15z
m86 -27 c0 -15 -19 -8 -29 9 -5 10 -13 14 -17 10 -12 -12 29 -37 50 -31 12 4
16 2 12 -5 -5 -7 -1 -9 8 -5 9 4 18 -1 22 -10 3 -9 10 -13 15 -10 5 3 12 -2
15 -10 3 -9 13 -16 20 -16 8 0 17 -7 20 -15 4 -8 11 -12 17 -8 6 4 7 1 2 -7
-6 -10 -4 -12 11 -6 16 6 17 5 6 -6 -11 -11 -17 -9 -32 9 l-18 23 2 -23 c1
-20 6 -23 31 -22 45 3 53 -3 49 -38 -2 -18 -1 -26 2 -19 3 6 12 12 20 12 8 0
14 4 14 9 0 8 100 -27 481 -169 103 -39 266 -108 362 -155 255 -124 395 -235
431 -342 22 -64 19 -89 -3 -31 -10 25 -28 60 -40 77 -67 94 -492 310 -1014
516 -225 88 -246 92 -248 46 0 -10 -2 -11 -6 -3 -6 16 -164 17 -180 1 -6 -6
-17 -8 -23 -4 -9 6 -9 9 1 16 10 6 9 12 -5 28 -23 25 -48 28 -44 5 2 -10 -3
-19 -9 -21 -7 -3 -13 4 -14 14 -2 29 -17 -26 -18 -66 -1 -19 -4 -32 -7 -28 -3
3 -3 35 1 71 6 51 11 66 24 66 9 0 23 5 31 10 12 7 12 12 2 22 -15 15 -16 58
0 58 6 0 8 3 5 7 -4 3 -1 13 6 21 10 13 9 15 -5 9 -14 -5 -18 -1 -18 19 0 14
4 22 10 19 6 -3 10 -1 10 5 0 12 49 -20 50 -32z m-128 -45 c-10 -26 -10 -24
-11 22 0 42 2 46 11 28 7 -15 7 -30 0 -50z m38 -14 c0 -10 -4 -19 -10 -19 -5
0 -10 12 -10 26 0 14 4 23 10 19 6 -3 10 -15 10 -26z m-5227 -36 c3 -27 9 -57
12 -68 6 -16 3 -16 -14 5 -13 16 -21 39 -21 68 0 57 16 54 23 -5z m5247 -19
c0 -8 -10 -14 -25 -14 -17 0 -25 -6 -25 -17 0 -9 -2 -14 -5 -11 -4 3 -3 16 0
29 7 27 55 38 55 13z m294 -92 c-6 -4 -18 -25 -27 -47 -11 -29 -16 -34 -16
-18 -1 12 4 25 9 28 6 3 10 15 10 25 0 10 6 20 13 23 16 6 24 -2 11 -11z
m-5481 -243 c3 -101 12 -222 20 -269 9 -47 19 -110 23 -140 l7 -55 47 53 c26
29 68 90 94 135 25 45 46 75 46 67 -1 -8 -7 -26 -15 -40 -25 -43 -16 -47 10
-5 13 22 25 35 25 29 0 -7 7 -15 16 -18 8 -3 13 -2 10 3 -6 9 23 25 31 18 2
-2 -1 -16 -7 -31 -5 -15 -10 -39 -9 -54 1 -20 4 -15 11 18 12 52 14 49 48 -75
12 -44 29 -96 39 -115 10 -20 22 -50 26 -68 4 -20 13 -32 23 -33 10 0 12 -3 5
-5 -7 -3 -9 -12 -6 -20 5 -13 7 -13 14 -2 6 8 7 -1 3 -22 -4 -27 -3 -32 5 -20
9 12 10 9 5 -12 -4 -17 -1 -29 8 -35 13 -7 50 -134 53 -178 1 -11 7 -33 14
-49 6 -16 8 -33 4 -37 -5 -5 -15 12 -22 37 -7 24 -16 43 -18 40 -3 -2 0 -19 6
-38 39 -128 104 -308 161 -453 38 -93 82 -215 100 -270 17 -55 35 -108 41
-117 5 -10 9 -28 9 -40 0 -21 0 -21 16 -2 15 18 15 18 8 -5 -3 -13 -2 -26 4
-30 5 -3 40 -55 77 -116 38 -60 91 -143 119 -184 54 -80 146 -185 153 -177 6
6 -29 66 -38 66 -3 0 -12 18 -19 40 -7 22 -21 47 -32 56 -10 10 -18 23 -18 31
0 7 -4 13 -10 13 -5 0 -10 6 -10 13 0 7 -9 19 -20 27 -10 8 -22 27 -25 42 -4
15 -10 28 -14 28 -8 0 -41 65 -41 80 0 6 5 10 10 10 6 0 10 -8 10 -18 0 -22
43 -65 55 -55 4 5 5 2 1 -4 -4 -7 -2 -13 4 -13 6 0 9 -4 6 -9 -10 -16 31 -43
56 -37 13 3 17 3 11 0 -18 -8 -16 -27 2 -20 10 3 34 -18 72 -64 31 -39 61 -70
65 -70 5 0 8 -8 6 -17 -2 -12 3 -17 13 -15 21 3 89 -72 89 -99 0 -11 -3 -18
-7 -16 -5 3 -9 -23 -9 -57 -1 -39 1 -54 6 -41 16 40 114 632 118 717 3 65 8
88 19 93 10 3 13 1 10 -8 -8 -20 3 -32 51 -56 62 -31 94 -43 87 -31 -3 6 -2
10 2 10 5 0 14 12 21 28 9 22 10 7 6 -78 -5 -101 -16 -162 -83 -460 -17 -74
-35 -184 -41 -245 -11 -121 -14 -741 -4 -866 l7 -79 -82 0 c-67 0 -81 3 -81
16 0 14 -53 15 -538 8 l-539 -7 -58 89 c-87 132 -157 194 -221 194 -23 0 -39
12 -77 59 -24 30 -54 147 -66 261 -18 164 -69 745 -88 1000 -24 326 -21 714 6
1030 12 129 30 349 41 489 20 253 41 420 61 496 l11 40 33 -36 32 -36 6 -184z
m5567 221 c33 -17 142 -64 243 -105 388 -157 759 -341 842 -417 50 -45 103
-136 119 -203 4 -16 11 -32 15 -35 7 -5 -29 -173 -39 -184 -3 -3 0 34 7 82 8
54 9 98 4 117 -9 28 -9 27 -10 -16 -2 -92 -41 -258 -100 -424 -34 -93 -63
-186 -66 -205 -5 -38 -2 -32 27 47 10 28 35 69 55 90 44 48 57 77 78 183 9 47
25 119 35 160 20 77 35 234 21 211 -11 -17 -23 13 -15 34 9 22 16 19 50 -17
87 -94 170 -270 277 -588 62 -183 75 -258 83 -465 7 -200 11 -257 25 -372 12
-95 11 -106 -9 -184 -20 -73 -103 -253 -168 -364 -23 -39 -23 -55 -1 -55 5 0
6 7 3 16 -4 11 1 22 14 31 11 8 20 22 20 32 0 9 8 26 19 37 10 11 22 31 26 45
4 13 16 35 25 49 10 14 20 34 22 45 2 11 10 19 17 17 7 -1 10 2 7 7 -3 5 -2
20 3 33 6 12 10 18 10 11 1 -7 8 -10 16 -7 12 5 15 -2 16 -32 1 -51 12 -86 24
-82 6 2 9 6 7 11 -1 4 7 26 19 49 12 24 17 44 11 46 -6 2 -6 11 1 26 11 23 12
23 37 -18 109 -172 140 -286 150 -561 6 -169 11 -214 32 -290 63 -223 79 -287
74 -292 -2 -3 12 -19 31 -36 84 -74 142 -209 170 -397 l17 -109 41 -30 c23
-16 65 -51 94 -77 l53 -48 -6 -50 c-4 -28 -16 -78 -27 -111 l-21 -61 35 -69
c30 -61 34 -77 30 -125 l-5 -55 45 -28 c24 -15 65 -45 90 -68 48 -42 182 -217
174 -226 -3 -2 -10 5 -17 16 -7 13 -16 19 -23 14 -7 -4 -20 -9 -31 -10 -14 -2
-17 1 -12 14 4 10 4 14 0 11 -4 -4 -34 16 -68 45 -161 139 -251 182 -481 232
-44 10 -95 23 -112 31 -35 14 -46 2 -14 -16 11 -5 68 -26 127 -45 59 -20 115
-42 124 -50 9 -8 20 -15 24 -15 17 0 117 -83 165 -137 29 -32 82 -101 119
-153 36 -52 83 -118 104 -147 48 -63 47 -87 -2 -87 -28 -1 -37 -7 -48 -28 -14
-29 -26 -35 -37 -18 -3 6 -18 10 -33 10 -17 0 -44 16 -74 43 -26 23 -61 52
-78 65 -17 14 -27 29 -23 35 3 7 3 9 -2 5 -9 -8 -65 18 -65 31 0 5 -13 14 -29
21 -19 7 -28 17 -24 26 3 8 0 14 -6 14 -6 0 -11 -5 -11 -10 0 -6 -8 -5 -19 2
-11 7 -17 17 -14 23 4 5 3 7 -1 3 -5 -4 -26 4 -48 18 -44 28 -60 26 -31 -3 10
-11 28 -39 41 -64 12 -24 86 -109 164 -189 117 -121 220 -242 261 -308 5 -8 0
-28 -12 -52 -17 -33 -18 -40 -6 -40 8 0 16 8 16 18 1 14 2 13 7 -3 4 -15 9 -6
18 30 7 28 11 35 9 18 -5 -38 -3 -39 20 -17 15 15 16 14 10 -12 -6 -28 -6 -28
10 -9 12 15 15 33 11 70 -3 34 -2 42 4 25 23 -70 -10 -165 -78 -218 -41 -33
-72 -41 -72 -19 0 6 -16 25 -35 40 -19 15 -35 35 -35 43 0 8 -4 13 -9 9 -6 -3
-18 3 -28 13 -10 11 -28 25 -40 31 -13 6 -23 18 -23 26 0 8 -6 12 -14 9 -8 -3
-17 -1 -21 5 -11 19 -22 12 -22 -13 0 -13 -9 -48 -19 -77 -16 -49 -18 -52 -25
-29 -7 25 -7 25 -8 2 -1 -14 -5 -21 -12 -16 -7 4 -9 21 -6 40 4 25 2 34 -9 34
-9 0 -14 11 -14 33 -1 27 -2 29 -11 14 -6 -10 -9 -27 -6 -36 2 -10 -1 -18 -7
-18 -7 0 -10 19 -8 54 2 32 0 53 -6 53 -6 0 -9 -16 -6 -38 3 -28 1 -24 -10 16
-7 29 -16 55 -20 59 -9 10 -7 -24 9 -122 14 -86 11 -190 -6 -200 -7 -5 -80
136 -94 184 -5 18 -9 20 -16 10 -11 -18 -13 -15 -62 82 -36 70 -129 209 -172
255 -51 57 -150 154 -155 154 -4 0 -13 12 -19 28 -7 16 -30 37 -58 52 -43 23
-45 25 -22 31 19 6 20 7 5 8 -11 1 -16 4 -13 8 4 3 -5 14 -20 24 l-27 18 54
25 c30 14 61 26 69 26 7 0 73 -27 145 -61 205 -96 233 -107 190 -74 -19 14
-19 14 1 15 17 0 17 2 5 10 -19 12 -6 13 18 1 9 -5 34 -16 55 -25 20 -8 37
-20 37 -25 0 -5 28 -35 62 -67 150 -140 238 -230 244 -246 3 -10 10 -18 15
-18 21 0 -40 69 -240 270 -113 114 -227 219 -252 233 -25 15 -77 35 -115 44
l-69 18 80 5 c49 3 73 8 62 12 -10 5 -28 8 -40 8 -12 0 -29 5 -37 11 -25 18
124 1 181 -21 48 -18 50 -18 35 -1 -9 10 -34 27 -56 37 -46 22 -56 47 -12 34
45 -14 153 -60 181 -78 14 -9 78 -57 141 -106 194 -151 201 -156 225 -156 37
0 38 14 4 72 -18 29 -32 58 -32 65 0 7 -3 11 -7 10 -3 -1 -35 29 -70 66 -94
100 -167 138 -310 158 -36 5 -91 13 -124 18 -33 6 -67 6 -80 1 -16 -7 -10 -9
29 -11 28 -1 40 -4 28 -6 -13 -2 -23 -11 -23 -19 0 -8 -4 -14 -10 -14 -5 0
-10 5 -10 10 0 6 -5 10 -11 10 -5 0 -7 -4 -4 -10 3 -5 -1 -10 -10 -10 -9 0
-14 4 -11 9 3 5 -2 15 -11 22 -13 11 -17 11 -20 2 -5 -15 -63 -18 -63 -3 0 14
-31 12 -80 -5 -23 -8 -69 -16 -102 -16 -37 -1 -55 -5 -46 -10 8 -5 8 -9 2 -9
-6 0 -17 6 -23 14 -13 15 4 26 40 26 10 0 19 6 19 13 0 17 44 41 62 34 7 -3 3
-6 -9 -6 -13 -1 -23 -5 -23 -11 0 -13 37 -13 45 1 4 5 19 8 33 5 15 -3 33 -2
41 3 11 7 10 11 -7 20 -26 14 -55 14 -47 1 4 -7 -3 -8 -21 -4 -16 4 -35 6 -44
5 -8 -1 -28 -4 -45 -5 -16 -2 -34 -4 -39 -5 -6 0 -1 -8 10 -17 10 -8 14 -13 7
-10 -6 4 -15 1 -18 -5 -4 -5 -14 -8 -22 -5 -8 3 -26 -2 -41 -11 -26 -17 -26
-17 -13 0 19 24 149 104 197 121 23 8 46 11 52 7 7 -4 -9 -13 -36 -21 -47 -14
-47 -14 98 -21 149 -6 210 -15 210 -30 0 -5 3 -8 8 -7 4 0 15 -2 25 -7 27 -11
33 2 12 25 -11 12 -19 33 -20 48 0 26 -2 27 -70 32 -39 3 -99 -1 -134 -8 -36
-7 -68 -9 -72 -5 -5 5 2 9 14 9 12 1 40 7 62 13 22 6 71 11 108 11 48 0 79 6
107 20 43 22 155 26 284 9 38 -5 71 -8 73 -5 2 2 -7 21 -21 42 -68 105 -88
111 -176 51 -102 -68 -188 -94 -219 -64 -11 10 -13 9 -9 -3 5 -13 -5 -16 -51
-18 -31 -1 -66 4 -79 12 -23 12 -22 14 40 37 34 13 69 23 76 22 6 0 12 2 12 7
0 12 49 30 67 24 12 -4 14 -3 6 3 -9 6 19 28 92 74 58 35 105 67 105 70 0 4
-18 16 -41 27 -22 11 -36 22 -32 24 4 3 3 4 -3 2 -7 -1 -54 11 -105 27 -100
31 -173 36 -304 19 -201 -25 -250 -33 -360 -61 -112 -28 -265 -47 -265 -33 0
13 36 35 130 80 52 24 116 58 142 75 26 17 52 28 57 25 5 -4 13 -1 17 5 5 8 2
10 -7 5 -10 -6 -10 -4 1 6 8 8 20 20 26 27 9 10 13 10 19 0 5 -7 4 -10 -2 -6
-6 4 -13 1 -16 -7 -7 -19 16 -15 37 7 31 31 27 18 -9 -29 -42 -56 -44 -68 -7
-59 102 25 222 160 179 202 -18 18 -52 4 -62 -26 -3 -11 -12 -22 -19 -24 -20
-8 -1 26 45 83 45 55 109 170 109 196 0 54 -69 112 -137 115 -26 2 -25 2 7 9
l35 7 -40 3 c-35 2 -37 3 -15 10 l25 8 -25 3 c-190 19 -240 22 -240 12 0 -19
-29 -22 -76 -8 -37 11 -59 12 -96 4 -26 -6 -48 -13 -48 -15 0 -3 30 -2 68 1
42 3 60 2 47 -3 -11 -5 -66 -12 -123 -15 -88 -4 -103 -3 -98 9 3 8 2 13 -3 9
-17 -10 -63 14 -58 30 4 9 1 12 -8 8 -9 -3 -18 4 -24 18 -6 18 -1 44 20 102
16 43 29 90 29 105 0 18 3 23 8 14 6 -8 8 0 8 20 0 18 3 53 7 78 l7 45 -14
-40 c-21 -59 -19 -28 4 67 26 110 53 526 38 590 -7 31 -17 31 -24 2 -4 -16
-10 -31 -13 -34 -11 -9 -69 -134 -77 -165 -8 -37 -73 -173 -86 -181 -5 -4 -2
8 7 26 9 17 14 34 12 37 -3 2 -10 -5 -17 -16 -6 -12 -16 -19 -22 -15 -7 4 -8
-2 -3 -17 4 -13 4 -21 0 -17 -10 9 -50 -36 -69 -77 -8 -16 -29 -43 -46 -60
l-32 -30 8 30 c4 17 9 35 13 40 3 6 4 18 3 27 -2 9 11 47 28 83 17 37 29 72
26 78 -2 7 -5 5 -5 -4 -1 -9 -8 -20 -17 -23 -13 -5 -14 -3 -7 6 6 7 18 35 28
61 13 34 21 44 27 35 6 -9 8 -7 4 8 -4 13 26 89 90 225 52 112 112 240 131
284 46 104 62 127 81 120 49 -19 70 30 121 290 21 106 39 168 61 210 35 68 20
52 -46 -49 -78 -120 -122 -200 -140 -254 -9 -29 -18 -51 -20 -49 -7 7 24 105
47 148 70 128 69 164 0 54 -23 -36 -44 -65 -47 -65 -4 0 -2 6 3 13 5 6 20 39
33 72 13 33 37 79 53 102 16 23 27 47 24 55 -3 7 -11 -2 -21 -24 -9 -20 -20
-39 -25 -42 -11 -7 19 91 48 154 23 52 30 84 35 156 2 30 23 98 50 165 43 109
72 207 62 216 -2 3 -7 -4 -9 -14 -32 -110 -50 -162 -62 -183 -14 -23 -14 -21
-9 35 4 45 3 56 -5 45 -6 -8 -11 -40 -10 -70 1 -59 -36 -184 -52 -174 -5 3 -9
3 -9 0 0 -2 -3 -13 -6 -23 -5 -15 -4 -16 6 -3 9 12 10 10 4 -9 -24 -86 -121
-230 -145 -216 -6 4 -8 13 -5 20 3 8 1 15 -4 17 -5 2 0 41 10 88 16 69 20 128
21 313 0 126 -2 231 -5 234 -3 4 -6 -27 -6 -68 -1 -41 -5 -157 -10 -259 -9
-176 -19 -241 -66 -397 -7 -24 13 -27 40 -4 8 7 21 9 27 5 7 -4 9 -3 6 3 -7
10 39 60 51 56 4 -2 7 2 7 7 0 6 3 10 8 10 4 0 11 0 16 0 10 0 -13 -135 -30
-175 -7 -16 -38 -68 -69 -115 -79 -123 -189 -314 -184 -320 3 -2 14 6 25 20
16 19 18 20 10 4 -5 -11 -16 -26 -24 -32 -8 -7 -27 -39 -41 -72 -15 -33 -31
-58 -37 -55 -5 3 -6 0 -3 -8 5 -14 -58 -151 -88 -190 -12 -16 -13 -15 -15 9
-1 19 2 23 7 13 7 -10 14 -1 28 31 11 25 17 49 14 55 -3 5 -7 25 -9 45 -2 19
-8 50 -14 67 -6 18 -7 38 -3 45 4 6 6 34 5 62 -3 46 -1 49 15 35 16 -13 16
-12 5 9 -7 14 -10 42 -7 70 3 26 8 91 12 145 4 53 9 97 13 97 3 0 7 48 9 106
3 128 10 174 52 364 26 112 33 170 34 255 1 99 -7 156 -19 143 -6 -6 -83 -457
-94 -549 l-8 -74 -2 95 c-1 52 -5 111 -10 130 -8 31 -51 159 -58 169 -4 7
-124 -92 -147 -122 -58 -76 -82 -171 -51 -197 28 -23 9 -324 -41 -665 -9 -60
-26 -207 -39 -325 -12 -118 -24 -204 -25 -190 l-2 25 -8 -25 c-6 -18 -9 -5
-11 50 -3 71 -3 69 -10 -40 -4 -63 -5 54 -3 260 5 475 33 928 57 913 6 -3 7
-1 3 5 -4 6 -4 35 0 64 4 30 10 45 13 36 3 -10 7 13 8 50 2 85 24 170 69 269
19 42 33 81 31 86 -5 16 -86 -159 -127 -275 -59 -170 -77 -213 -82 -197 -4 11
-9 12 -31 2 -24 -11 -27 -10 -27 5 0 9 -7 73 -15 142 -8 69 -22 213 -30 320
-27 333 -62 586 -110 785 -21 90 -55 276 -55 304 0 16 3 15 70 -19z m-396 -7
c-10 -40 -14 -41 -14 -5 0 18 5 32 10 32 6 0 8 -11 4 -27z m313 -15 c-3 -7 -5
-2 -5 12 0 14 2 19 5 13 2 -7 2 -19 0 -25z m-5311 -40 c21 -41 11 -34 -21 15
-16 24 -21 36 -11 28 10 -8 24 -27 32 -43z m5011 10 c-3 -7 -5 -2 -5 12 0 14
2 19 5 13 2 -7 2 -19 0 -25z m293 -10 c0 -19 -2 -20 -10 -8 -13 19 -13 30 0
30 6 0 10 -10 10 -22z m-6045 -45 c-11 -65 -15 -70 -48 -76 -48 -8 -622 -230
-780 -302 -163 -75 -269 -137 -292 -171 -32 -49 -8 -46 50 6 97 86 437 240
905 410 164 60 153 59 146 14 -11 -69 -45 -376 -56 -504 -5 -69 -17 -181 -25
-250 -7 -69 -17 -226 -20 -350 -8 -322 -23 -553 -45 -725 -23 -169 -26 -193
-75 -465 -19 -107 -37 -237 -40 -289 -2 -52 -6 -96 -9 -98 -2 -2 -7 24 -10 59
-4 35 -9 77 -12 93 -3 17 -5 40 -5 52 1 13 -12 49 -28 80 -23 45 -36 98 -60
243 -60 367 -64 420 -51 733 6 170 7 292 2 307 l-9 24 -28 -29 c-42 -46 -61
-92 -79 -185 -28 -154 -39 -352 -32 -610 l7 -245 -30 30 c-28 28 -58 82 -198
356 -112 218 -252 588 -259 684 -2 28 -8 75 -14 107 -6 35 -7 79 -1 120 5 34
7 65 6 67 -6 6 -24 -73 -28 -129 -12 -136 97 -484 250 -795 98 -200 157 -356
147 -388 -5 -17 -8 -17 -37 10 l-31 28 17 -27 c25 -41 21 -43 -12 -6 -16 18
-58 92 -94 163 -36 72 -72 139 -80 150 -24 31 -34 8 -13 -28 90 -154 135 -250
140 -301 5 -46 21 -106 38 -139 5 -10 6 -28 2 -39 -4 -15 -3 -18 6 -13 8 5 11
4 7 -2 -3 -5 0 -27 8 -49 18 -50 19 -107 3 -102 -7 2 -22 21 -32 42 -22 45
-87 233 -89 259 -1 9 -5 17 -9 17 -4 0 -11 18 -14 40 -4 22 -11 43 -15 46 -21
13 -21 -38 -1 -185 34 -246 53 -435 50 -487 -3 -45 -4 -47 -14 -24 l-11 25
-16 -32 c-10 -18 -19 -70 -23 -129 -10 -155 -7 -191 22 -248 32 -64 49 -158
33 -187 -14 -26 -94 -63 -190 -88 -41 -11 -101 -27 -134 -36 -87 -24 -172 -42
-238 -50 -31 -4 -60 -11 -63 -16 -3 -5 -41 -9 -84 -9 -89 0 -228 -25 -360 -65
-30 -9 -77 -22 -104 -29 -35 -8 -51 -18 -57 -34 -8 -22 -8 -22 19 -6 l27 16
-24 -21 c-13 -12 -27 -21 -32 -21 -18 0 -20 22 -3 41 9 10 15 21 13 24 -5 5
-66 -49 -88 -78 -13 -17 -12 -18 14 -13 16 3 32 11 37 18 5 9 8 9 8 2 0 -20
30 -24 61 -9 16 9 29 24 29 33 0 14 18 24 73 40 39 12 86 24 102 27 l30 6 -24
-20 -23 -21 39 0 c21 0 63 9 93 19 30 11 72 22 92 26 21 4 35 11 32 16 -3 5 6
9 20 9 14 0 26 4 26 9 0 4 32 16 71 25 52 13 89 16 145 11 75 -7 80 -11 74
-54 -1 -10 5 -12 22 -6 64 21 132 8 76 -15 -21 -8 -21 -9 -3 -10 21 -1 -73
-44 -165 -75 -30 -11 -59 -23 -65 -28 -13 -13 9 -6 113 32 106 38 179 53 265
55 l68 2 -7 -31 c-4 -16 -18 -40 -31 -52 -13 -13 -21 -23 -17 -23 3 0 1 -6 -5
-13 -6 -8 -37 -22 -68 -32 -32 -10 -86 -29 -121 -42 -34 -13 -108 -40 -164
-59 -113 -40 -196 -79 -278 -133 -31 -20 -64 -41 -75 -47 -31 -17 -29 -41 6
-87 49 -65 86 -94 176 -143 45 -25 85 -49 88 -54 8 -12 -38 2 -53 16 -7 7 -20
11 -30 8 -14 -5 -15 -4 -2 5 9 7 11 11 3 11 -7 0 -16 -8 -21 -17 -8 -14 -31
-18 -126 -22 -74 -4 -116 -2 -116 4 0 6 -3 5 -8 -1 -7 -12 -29 -20 -72 -28
-76 -13 -107 -25 -92 -35 5 -3 12 -14 14 -25 2 -14 -7 -21 -42 -31 -25 -8
-124 -41 -220 -74 -178 -61 -206 -69 -195 -51 11 18 -116 -28 -165 -61 -14 -9
-42 -22 -62 -28 -20 -7 -54 -21 -75 -32 l-38 -20 35 7 c19 4 80 22 135 41 224
77 273 91 335 98 36 4 62 4 58 0 -3 -3 -12 -8 -20 -9 -7 -2 -20 -5 -28 -8 -8
-3 -33 -11 -55 -17 -37 -10 -235 -135 -342 -217 -56 -43 -107 -45 -170 -9 -36
22 -43 31 -44 58 0 18 -3 26 -6 19 -2 -6 -9 -10 -14 -6 -39 24 50 112 202 198
128 72 349 216 349 227 0 34 -129 72 -236 69 -35 -1 -42 3 -48 22 -25 94 36
232 183 417 l68 86 42 188 c62 279 90 348 213 526 40 58 58 94 58 115 1 120
181 505 322 686 51 67 58 81 58 120 0 61 19 290 30 371 19 127 59 242 155 434
68 138 114 248 166 400 84 247 163 410 252 518 75 91 283 203 662 355 110 45
250 103 310 131 61 27 114 50 118 51 4 0 5 -17 2 -37z m5568 -126 c-3 -17 2
-28 21 -41 14 -9 26 -12 26 -7 0 6 -7 14 -16 19 -9 5 -15 15 -12 22 9 28 49
-61 62 -137 8 -43 17 -193 20 -333 3 -140 11 -413 18 -605 l11 -350 -52 -375
c-66 -471 -129 -810 -151 -810 -6 0 -10 -8 -10 -17 0 -16 2 -16 11 -3 9 13 10
13 6 -2 -13 -39 -66 -227 -78 -275 -11 -46 -14 -50 -26 -35 -13 15 -13 14 -3
-6 6 -12 8 -38 4 -57 -6 -33 -7 -34 -20 -18 -13 16 -13 15 -3 -8 9 -23 6 -42
-21 -120 -49 -143 -88 -194 -159 -210 -20 -5 -267 -9 -548 -9 l-513 0 0 79 c0
44 4 82 9 85 5 3 6 26 4 50 -7 63 16 410 27 414 6 2 8 7 5 11 -2 4 39 25 93
45 53 20 106 42 117 47 63 31 214 214 292 354 64 115 139 269 179 367 39 97
61 144 115 238 8 14 17 27 20 30 3 3 22 40 41 82 19 43 38 75 43 70 5 -4 5 -2
1 5 -4 7 0 26 9 43 13 26 14 34 3 48 -11 15 -10 15 8 -1 20 -16 21 -16 19 1 0
9 -4 23 -8 30 -6 8 -3 10 9 5 14 -5 16 -2 12 15 -4 12 -2 24 2 27 4 3 7 -19 7
-49 -1 -30 1 -52 5 -50 16 10 19 -88 4 -162 -45 -227 -78 -467 -92 -676 -7
-106 -1 -119 37 -75 32 35 57 96 94 229 27 97 34 114 33 78 -1 -25 -6 -48 -11
-51 -5 -4 -7 -17 -4 -30 l4 -24 8 23 c4 12 12 22 17 22 6 0 8 9 5 20 -3 11 -1
17 5 14 5 -3 6 -19 3 -34 -3 -16 -8 -55 -9 -87 -2 -32 -11 -120 -20 -195 -16
-125 -16 -139 -1 -167 9 -18 13 -41 9 -56 -4 -15 -2 -25 4 -25 23 0 51 237 51
435 0 66 5 172 10 235 30 341 42 469 51 532 11 77 15 306 6 315 -3 4 -6 -32
-6 -78 -1 -46 -7 -111 -15 -144 l-15 -60 6 60 c3 33 10 105 16 160 6 55 11
118 11 140 0 22 2 32 4 23 6 -26 23 -22 23 5 0 40 12 68 26 63 17 -7 19 20 2
28 -7 3 -3 3 9 0 18 -4 20 -1 16 16 -3 11 -1 20 5 20 6 0 13 -15 17 -32 10
-51 39 -118 50 -118 13 0 11 -38 20 530 4 253 12 462 17 470 7 11 8 8 5 -12
-3 -19 0 -25 9 -21 8 3 19 -6 26 -22 10 -22 13 -24 21 -10 6 12 2 23 -18 41
-16 15 -25 33 -24 47 2 12 -1 29 -6 37 -7 13 -6 13 7 2 9 -7 13 -22 11 -35z
m-4678 -44 l28 -38 -31 29 c-18 17 -32 33 -32 38 0 15 7 9 35 -29z m-928 -355
c-2 -13 -4 -3 -4 22 0 25 2 35 4 23 2 -13 2 -33 0 -45z m1309 11 c4 -8 1 -8
-14 0 -12 6 -24 16 -28 22 -4 8 -1 8 14 0 12 -6 24 -16 28 -22z m79 -59 c10
-11 16 -20 13 -20 -3 0 -13 9 -23 20 -10 11 -16 20 -13 20 3 0 13 -9 23 -20z
m46 -37 c13 -16 12 -17 -3 -4 -10 7 -18 15 -18 17 0 8 8 3 21 -13z m40 -30
c13 -16 12 -17 -3 -4 -10 7 -18 15 -18 17 0 8 8 3 21 -13z m84 -71 c-3 -3 -11
0 -18 7 -9 10 -8 11 6 5 10 -3 15 -9 12 -12z m310 -10 c-3 -3 -11 0 -18 7 -9
10 -8 11 6 5 10 -3 15 -9 12 -12z m-219 -64 c4 -7 -9 1 -29 16 -20 16 -37 30
-37 33 0 7 58 -36 66 -49z m362 15 c-10 -2 -28 -2 -40 0 -13 2 -5 4 17 4 22 1
32 -1 23 -4z m22 -23 c0 -5 -4 -10 -9 -10 -6 0 -13 5 -16 10 -3 6 1 10 9 10 9
0 16 -4 16 -10z m-175 -91 c3 -5 -1 -6 -9 -3 -15 6 -17 -11 -3 -33 6 -9 3 -11
-8 -7 -9 4 -14 13 -11 21 4 11 1 13 -14 8 -11 -4 -20 -2 -20 4 0 6 3 10 8 10
28 -5 32 3 11 21 l-24 20 32 -16 c18 -8 35 -19 38 -25z m-75 5 c0 -2 -9 0 -20
6 -11 6 -20 13 -20 16 0 2 9 0 20 -6 11 -6 20 -13 20 -16z m122 -26 c8 -7 18
-22 22 -33 6 -19 5 -19 -8 -1 -9 10 -20 15 -27 10 -8 -5 -10 -3 -4 6 4 7 2 16
-6 21 -8 5 -9 9 -3 9 5 0 17 -6 26 -12z m2174 -17 c-3 -4 -20 -14 -38 -22 -18
-7 -35 -16 -38 -20 -3 -3 -21 -14 -40 -24 -18 -10 -40 -24 -48 -31 -7 -8 -18
-14 -24 -14 -13 0 21 27 77 61 93 56 123 70 111 50z m-2076 -25 c0 -2 -9 -6
-20 -9 -11 -3 -18 -1 -14 4 5 9 34 13 34 5z m-85 -16 c3 -6 -1 -7 -9 -4 -18 7
-21 14 -7 14 6 0 13 -4 16 -10z m246 -29 c107 -36 243 -89 457 -179 57 -24 88
-42 78 -45 -8 -3 -17 -1 -19 6 -3 9 -9 9 -26 0 -27 -17 -65 -17 -55 -1 4 6 3
8 -3 5 -16 -10 -104 23 -96 35 3 7 1 8 -6 4 -16 -11 -272 84 -264 97 4 6 0 8
-9 4 -9 -3 -49 7 -90 23 -68 27 -85 43 -21 20 24 -9 26 -8 11 3 -10 8 -15 16
-12 19 3 4 1 9 -5 13 -6 3 -11 1 -11 -4 0 -19 -38 -12 -45 8 -3 11 -14 22 -23
24 -13 4 -12 5 4 6 12 0 73 -16 135 -38z m-987 -86 c-8 -19 15 -77 26 -70 5 3
12 0 16 -6 4 -8 3 -9 -4 -5 -17 11 -15 -30 2 -47 9 -8 13 -24 10 -38 -4 -16
-3 -20 3 -11 6 8 15 -8 28 -50 10 -35 22 -69 28 -75 6 -9 5 -13 -5 -13 -13 0
-33 47 -105 239 -18 49 -21 67 -12 77 15 18 20 18 13 -1z m2652 -44 c-6 -9
-46 -22 -46 -15 0 3 10 9 23 14 29 11 29 11 23 1z m341 -108 c-3 -10 -5 -4 -5
12 0 17 2 24 5 18 2 -7 2 -21 0 -30z m-1492 -3 c3 -5 -1 -10 -9 -10 -9 0 -16
5 -16 10 0 6 4 10 9 10 6 0 13 -4 16 -10z m148 -17 c31 -18 44 -29 34 -31 -9
-2 -26 6 -39 17 -12 12 -27 21 -34 21 -7 0 -16 5 -19 10 -10 16 4 12 58 -17z
m-98 7 c-3 -5 -1 -10 6 -10 7 0 10 -2 8 -5 -3 -2 -16 -1 -29 2 -22 6 -23 7 -4
14 26 10 26 10 19 -1z m1470 -225 c15 -105 16 -167 11 -506 -4 -212 -11 -437
-16 -500 -6 -63 -14 -303 -20 -534 -5 -231 -13 -439 -16 -462 -7 -48 -16 -53
-118 -53 -66 0 -68 1 -63 23 3 12 8 175 12 362 3 187 13 424 21 526 16 197 25
949 12 949 -5 0 -8 7 -8 15 0 8 4 15 9 15 6 0 12 15 15 33 2 17 3 -17 0 -77
-2 -60 0 -114 5 -120 5 -6 13 -44 16 -83 6 -56 5 -73 -5 -73 -9 0 -9 -4 -2
-13 6 -7 12 -45 13 -85 1 -40 6 -72 11 -72 4 0 8 -9 8 -20 0 -44 35 -13 38 34
1 16 9 37 17 46 19 21 19 30 0 30 -8 0 -15 5 -15 10 0 6 7 10 15 10 17 0 21
17 31 120 15 178 15 344 -2 428 -11 60 -14 101 -8 145 l8 62 6 -45 c4 -25 15
-99 25 -165z m-182 180 c-3 -9 -8 -14 -10 -11 -3 3 -2 9 2 15 9 16 15 13 8 -4z
m129 -27 c-6 -6 -7 0 -4 19 5 21 7 23 10 9 2 -10 0 -22 -6 -28z m1044 -25 c-8
-15 -15 -25 -16 -21 0 12 23 58 27 54 3 -2 -2 -17 -11 -33z m-1179 -20 c-3
-10 -5 -2 -5 17 0 19 2 27 5 18 2 -10 2 -26 0 -35z m20 25 c-3 -8 -6 -5 -6 6
-1 11 2 17 5 13 3 -3 4 -12 1 -19z m-907 -17 c0 -27 -15 -34 -31 -15 -10 13
-10 17 2 25 22 13 29 11 29 -10z m-1830 -60 c0 -5 3 -18 6 -28 5 -16 4 -16
-10 1 -18 23 -20 36 -6 36 6 0 10 -4 10 -9z m2740 -46 c14 33 11 -31 -4 -94
l-12 -55 0 95 c0 52 1 81 4 64 4 -26 5 -28 12 -10z m117 -2 c-3 -10 -5 -4 -5
12 0 17 2 24 5 18 2 -7 2 -21 0 -30z m-2834 -43 c3 -11 1 -18 -4 -14 -5 3 -9
12 -9 20 0 20 7 17 13 -6z m4034 -87 c-2 -16 -4 -5 -4 22 0 28 2 40 4 28 2
-13 2 -35 0 -50z m-4009 22 c-3 -3 -9 2 -12 12 -6 14 -5 15 5 6 7 -7 10 -15 7
-18z m5769 -25 c-25 -30 -35 -23 -16 12 8 13 12 27 11 32 -2 5 4 4 12 -3 14
-12 13 -16 -7 -41z m-1900 18 c-3 -8 -6 -5 -6 6 -1 11 2 17 5 13 3 -3 4 -12 1
-19z m132 -123 c-15 -117 -21 -150 -30 -165 -10 -16 -9 -7 12 130 12 81 18
105 23 99 2 -2 0 -31 -5 -64z m-3052 -37 c-3 -8 -6 -5 -6 6 -1 11 2 17 5 13 3
-3 4 -12 1 -19z m2736 -13 c-3 -9 -8 -14 -10 -11 -3 3 -2 9 2 15 9 16 15 13 8
-4z m2091 -157 c-21 -40 -102 -158 -122 -178 -12 -12 -12 -10 1 10 9 14 42 64
74 113 59 91 75 109 47 55z m-2236 -117 c-35 -72 -67 -131 -71 -131 -10 0 -16
-11 63 142 35 70 66 125 68 124 1 -2 -26 -62 -60 -135z m2240 40 c-13 -22 -27
-41 -32 -41 -4 0 -2 10 6 23 8 12 21 32 29 44 24 39 22 16 -3 -26z m26 -13
c-9 -18 -36 -62 -59 -98 -23 -36 -47 -74 -53 -85 -6 -11 -12 -15 -12 -10 0 15
40 88 54 100 7 6 28 36 45 68 35 61 53 79 25 25z m-1867 -65 c-3 -10 -5 -2 -5
17 0 19 2 27 5 18 2 -10 2 -26 0 -35z m-2168 -9 c8 -7 -64 -2 -89 6 -16 6 -6
7 30 3 30 -3 57 -7 59 -9z m2158 -36 c-3 -8 -6 -5 -6 6 -1 11 2 17 5 13 3 -3
4 -12 1 -19z m1762 0 c-7 -13 -24 -37 -38 -55 -14 -17 -34 -42 -44 -55 -17
-23 -17 -22 -2 9 8 17 20 35 25 38 6 4 22 24 36 46 26 42 42 54 23 17z m-5313
-35 c-7 -7 -26 7 -26 19 0 6 6 6 15 -2 9 -7 13 -15 11 -17z m1371 -25 c-3 -8
-6 -5 -6 6 -1 11 2 17 5 13 3 -3 4 -12 1 -19z m13 -70 c0 -19 -16 -5 -17 14
-2 18 0 20 7 8 5 -8 10 -18 10 -22z m-3851 -76 c-8 -14 -9 -12 -3 7 3 14 2 21
-3 18 -6 -4 -10 8 -11 26 l-1 32 15 -33 c10 -25 11 -39 3 -50z m3801 68 c0 -5
-2 -10 -4 -10 -3 0 -8 5 -11 10 -3 6 -1 10 4 10 6 0 11 -4 11 -10z m80 -4 c0
-3 -4 -8 -10 -11 -5 -3 -10 -1 -10 4 0 6 5 11 10 11 6 0 10 -2 10 -4z m-3786
-58 c9 -43 2 -45 -11 -3 -6 19 -8 35 -3 35 4 0 10 -14 14 -32z m3756 16 c0 -8
-4 -12 -10 -9 -5 3 -10 10 -10 16 0 5 5 9 10 9 6 0 10 -7 10 -16z m3677 -31
c-3 -10 -5 -2 -5 17 0 19 2 27 5 18 2 -10 2 -26 0 -35z m-8537 -34 c-5 -19
-17 -44 -25 -54 -14 -19 -15 -19 -8 -1 4 13 2 17 -8 14 -8 -3 -13 -13 -12 -23
1 -12 -2 -14 -9 -7 -12 12 6 47 45 89 26 29 29 25 17 -18z m1033 21 c3 -11 1
-18 -4 -14 -5 3 -9 12 -9 20 0 20 7 17 13 -6z m5418 -23 c-10 -9 -11 -8 -5 6
3 10 9 15 12 12 3 -3 0 -11 -7 -18z m-1593 -87 c-7 -10 -14 -17 -17 -15 -4 4
18 35 25 35 2 0 -1 -9 -8 -20z m2 -100 c0 -5 -4 -10 -10 -10 -5 0 -10 5 -10
10 0 6 5 10 10 10 6 0 10 -4 10 -10z m1500 -4 c0 -2 -8 -10 -17 -17 -16 -13
-17 -12 -4 4 13 16 21 21 21 13z m-117 -146 c-31 -33 -60 -60 -64 -60 -10 0
103 119 113 120 4 0 -18 -27 -49 -60z m-1358 18 c6 -4 2 -8 -7 -8 -10 0 -18 7
-18 17 0 9 3 12 8 7 4 -5 12 -12 17 -16z m3302 -75 c-3 -10 -5 -2 -5 17 0 19
2 27 5 18 2 -10 2 -26 0 -35z m-3385 -33 c5 -35 -7 -41 -16 -7 -8 32 -7 49 3
43 5 -3 11 -19 13 -36z m73 -10 c3 -5 1 -10 -4 -10 -6 0 -11 5 -11 10 0 6 2
10 4 10 3 0 8 -4 11 -10z m3302 -47 c-3 -10 -5 -2 -5 17 0 19 2 27 5 18 2 -10
2 -26 0 -35z m-3397 7 c0 -5 -5 -10 -11 -10 -5 0 -7 5 -4 10 3 6 8 10 11 10 2
0 4 -4 4 -10z m29 -50 c0 -23 -1 -23 -9 -5 -5 11 -9 29 -9 40 -1 17 1 17 9 5
5 -8 9 -26 9 -40z m3354 -4 c3 -30 1 -43 -4 -35 -8 13 -13 97 -5 88 2 -2 6
-26 9 -53z m-3302 17 c-8 -15 -10 -15 -11 -2 0 17 10 32 18 25 2 -3 -1 -13 -7
-23z m-3951 -97 c0 -28 -25 -55 -32 -34 -3 7 2 20 10 28 14 13 14 15 -1 18 -9
2 -17 10 -17 18 0 12 4 12 20 4 11 -6 20 -21 20 -34z m3910 13 c0 -5 -7 -6
-15 -3 -8 4 -15 13 -15 21 0 13 3 13 15 3 8 -7 15 -16 15 -21z m3337 -56 c-2
-16 -4 -5 -4 22 0 28 2 40 4 28 2 -13 2 -35 0 -50z m-3334 7 c-3 -11 -12 -20
-19 -20 -16 0 -16 2 -8 24 9 24 33 20 27 -4z m-7 -55 c10 -26 -1 -35 -13 -10
-6 14 -7 25 -2 25 5 0 12 -7 15 -15z m66 -7 c-7 -7 -12 -8 -12 -2 0 14 12 26
19 19 2 -3 -1 -11 -7 -17z m-5195 -10 c-3 -8 -6 -5 -6 6 -1 11 2 17 5 13 3 -3
4 -12 1 -19z m5213 -74 c0 -24 -17 -41 -28 -29 -4 4 -1 10 6 12 6 3 12 12 12
21 0 14 -2 15 -10 2 -12 -20 -23 -6 -15 20 5 17 10 19 21 9 8 -6 14 -22 14
-35z m-93 -146 c-3 -7 -5 -2 -5 12 0 14 2 19 5 13 2 -7 2 -19 0 -25z m-2324 9
c7 3 9 3 5 -2 -4 -4 -2 -15 4 -24 8 -10 4 -9 -10 3 -12 11 -22 24 -21 30 0 6
3 6 6 -2 2 -6 10 -9 16 -5z m2417 -21 c0 -20 -4 -24 -21 -21 -28 6 -37 15 -16
15 10 0 17 7 17 15 0 8 5 15 10 15 6 0 10 -11 10 -24z m-2375 -36 c4 -6 12 -7
18 -4 7 4 9 4 5 0 -4 -5 5 -19 19 -32 14 -13 23 -24 19 -24 -4 0 2 -9 12 -20
10 -11 28 -38 40 -60 36 -68 1 -45 -48 31 -25 38 -55 80 -68 94 -12 14 -18 25
-13 25 5 0 13 -5 16 -10z m2345 -4 c0 -3 -4 -8 -10 -11 -5 -3 -10 -1 -10 4 0
6 5 11 10 11 6 0 10 -2 10 -4z m29 -38 c0 -27 -2 -29 -8 -13 -5 11 -6 26 -4
33 8 21 13 13 12 -20z m-99 -58 c0 -5 -7 -10 -15 -10 -8 0 -15 5 -15 10 0 6 7
10 15 10 8 0 15 -4 15 -10z m100 -35 c0 -25 -4 -45 -10 -45 -5 0 -8 10 -6 23
3 12 5 32 5 45 2 42 11 22 11 -23z m-43 19 c-3 -3 -12 -4 -19 -1 -8 3 -5 6 6
6 11 1 17 -2 13 -5z m-57 -24 c0 -5 -2 -10 -4 -10 -3 0 -8 5 -11 10 -3 6 -1
10 4 10 6 0 11 -4 11 -10z m-2 -25 c12 -12 -9 -17 -23 -5 -8 7 -22 10 -30 6
-8 -3 -15 0 -15 6 0 10 57 4 68 -7z m3740 -89 c34 -17 82 -74 82 -97 0 -8 -6
-5 -15 8 -9 12 -31 25 -50 29 -18 3 -420 1 -892 -6 -472 -6 -1936 -13 -3253
-16 -1317 -3 -2639 -8 -2937 -12 l-541 -7 -27 -25 c-15 -14 -38 -45 -51 -70
-22 -43 -23 -44 -24 -16 0 34 46 113 103 175 l40 44 1156 4 c636 3 1157 6
1159 8 2 1 1177 2 2611 0 2375 -2 2610 -4 2639 -19z m49 -242 c-3 -3 -12 -4
-19 -1 -8 3 -5 6 6 6 11 1 17 -2 13 -5z m-1241 -413 c-16 -11 -35 -30 -42 -43
-8 -13 -13 -17 -14 -10 0 17 54 72 72 72 7 0 0 -9 -16 -19z m2341 -127 c-3 -3
-12 -4 -19 -1 -8 3 -5 6 6 6 11 1 17 -2 13 -5z m-130 -40 c-16 -9 -31 -13 -34
-10 -3 3 5 10 18 15 37 15 47 12 16 -5z m-50 -20 c-3 -3 -12 -4 -19 -1 -8 3
-5 6 6 6 11 1 17 -2 13 -5z m137 -78 c-3 -8 -12 -12 -21 -9 -12 5 -12 7 -1 14
20 13 28 11 22 -5z m81 -17 c11 -1 -18 -7 -64 -15 -46 -8 -86 -12 -89 -9 -3 3
4 5 16 5 12 0 22 5 22 11 0 6 8 8 19 4 11 -3 22 -1 26 5 4 7 17 9 29 6 11 -3
30 -6 41 -7z m-9775 -146 c2 -2 -16 -3 -40 -2 -99 4 -265 -13 -277 -28 -13
-17 -68 -10 -58 7 4 6 11 8 16 4 5 -3 16 0 25 6 8 8 61 14 132 17 64 3 119 7
121 9 5 5 73 -6 81 -13z m60 -3 c0 -5 -9 -10 -19 -10 -11 0 -27 -3 -37 -7 -16
-6 -17 -5 -4 10 16 18 60 23 60 7z m83 3 c-7 -2 -19 -2 -25 0 -7 3 -2 5 12 5
14 0 19 -2 13 -5z m-172 -22 c-11 -7 -11 -9 0 -13 8 -3 1 -5 -16 -6 -16 0 -71
-3 -121 -6 -50 -3 -104 -1 -120 4 -22 6 -6 9 61 9 50 0 106 4 125 10 47 12 90
14 71 2z m-641 -26 c-14 -8 -29 -14 -35 -14 -5 0 1 6 15 14 14 8 30 14 35 14
6 0 -1 -6 -15 -14z m10070 -9 c-14 -13 -27 -22 -29 -20 -7 6 31 44 43 44 6 0
-1 -11 -14 -24z m-9510 -20 c126 -8 250 -21 283 -30 60 -17 153 -59 159 -74 1
-4 41 -16 88 -26 85 -18 152 -48 180 -83 18 -22 42 -73 34 -73 -3 0 -37 14
-75 30 -59 26 -75 29 -115 23 -77 -13 -63 -28 49 -53 113 -24 214 -67 209 -88
-1 -8 2 -11 8 -7 6 4 34 -14 63 -39 147 -128 225 -215 212 -235 -3 -6 0 -8 8
-5 19 7 37 -44 37 -107 0 -55 9 -55 -138 -7 -78 25 -103 29 -164 25 -65 -5
-70 -4 -48 9 14 7 19 13 11 14 -26 0 -165 -42 -206 -63 -113 -57 -252 -174
-306 -258 -17 -28 -35 -47 -39 -42 -4 4 -45 53 -90 108 -94 113 -115 135 -150
158 -23 15 -28 14 -75 -9 -50 -25 -171 -39 -182 -22 -2 5 0 8 5 8 5 0 14 11
20 24 5 13 33 55 61 93 28 38 51 73 51 78 0 4 -36 -40 -80 -98 -44 -58 -89
-111 -99 -117 -11 -5 -37 -10 -58 -10 -22 0 -44 -5 -51 -12 -9 -9 -12 -9 -12
3 0 8 23 39 51 69 78 85 82 90 144 180 32 47 76 106 98 132 23 28 37 54 34 65
-3 15 -6 13 -15 -9 -14 -34 -26 -37 -19 -5 5 20 4 20 -6 4 -26 -41 -36 -52
-41 -46 -7 7 54 74 73 80 24 8 3 27 -23 22 -19 -4 -38 -28 -83 -107 -32 -55
-96 -159 -143 -230 -84 -127 -129 -199 -152 -243 -14 -29 -20 -29 -35 2 -6 14
-8 23 -3 20 8 -5 23 35 25 65 1 18 44 90 108 178 82 114 165 241 172 263 12
38 25 40 -255 -32 -108 -27 -133 -37 -183 -75 -31 -24 -62 -44 -67 -44 -6 0
-18 16 -27 35 -13 26 -14 40 -6 57 16 33 306 391 391 482 45 48 46 48 96 42
28 -3 152 -12 276 -20z m9763 17 c-7 -2 -21 -2 -30 0 -10 3 -4 5 12 5 17 0 24
-2 18 -5z m-23 -17 c0 -9 -30 -14 -35 -6 -4 6 3 10 14 10 12 0 21 -2 21 -4z
m-100 -50 c-30 -18 -58 -31 -62 -29 -13 7 -9 23 6 23 8 0 21 6 28 14 14 14 39
23 68 25 8 0 -10 -14 -40 -33z m-9150 3 c18 -10 -86 1 -115 12 -11 4 7 5 40 2
33 -3 67 -9 75 -14z m9070 -29 c0 -5 -2 -10 -4 -10 -3 0 -8 5 -11 10 -3 6 -1
10 4 10 6 0 11 -4 11 -10z m1240 -80 c-10 -7 -11 -10 -2 -10 6 0 12 -7 12 -17
0 -14 -2 -14 -20 2 -26 23 -25 30 2 32 18 2 20 0 8 -7z m-1284 -79 c-4 -5 0
-12 6 -15 7 -4 2 -4 -12 -1 -14 2 -36 5 -50 6 -20 1 -18 3 10 9 51 11 52 11
46 1z m429 -11 c3 -5 1 -10 -4 -10 -6 0 -11 5 -11 10 0 6 2 10 4 10 3 0 8 -4
11 -10z m55 0 c0 -5 -5 -10 -11 -10 -5 0 -7 5 -4 10 3 6 8 10 11 10 2 0 4 -4
4 -10z m-637 -15 c73 -6 176 -42 289 -102 101 -53 249 -217 334 -370 18 -32
42 -74 53 -94 11 -19 25 -63 32 -97 13 -60 12 -63 -9 -78 -12 -8 -20 -19 -17
-24 3 -5 0 -12 -6 -16 -8 -4 -9 -3 -5 4 4 7 3 12 -3 12 -22 0 -21 -23 5 -74
15 -30 24 -60 21 -69 -6 -16 -61 -47 -83 -47 -7 0 -18 -15 -23 -32 -5 -18 -10
-25 -10 -15 -1 26 -17 21 -53 -19 -18 -20 -72 -65 -120 -100 -114 -85 -137
-113 -209 -256 -65 -131 -110 -211 -115 -206 -2 2 23 56 56 120 42 84 62 138
70 190 16 92 7 320 -15 402 -12 48 -13 62 -3 75 11 14 11 14 -3 3 -14 -11 -21
-4 -53 51 -135 230 -362 385 -496 338 -31 -10 -34 -9 -77 40 -47 51 -69 60
-39 15 15 -24 15 -26 -22 -62 -45 -44 -188 -156 -221 -174 l-24 -12 7 109 c10
161 12 164 75 179 67 15 124 54 177 124 24 30 49 54 56 52 7 -2 10 0 5 4 -8 8
21 44 36 44 5 0 3 -8 -4 -17 -13 -16 -12 -17 3 -4 10 7 15 17 13 22 -6 9 56
51 103 71 29 13 141 26 182 21 14 -1 56 -5 93 -8z m1014 -91 c19 -14 32 -28
30 -31 -3 -2 13 -23 35 -45 22 -23 47 -56 54 -74 8 -18 25 -45 39 -60 14 -15
25 -32 25 -38 0 -6 -23 14 -49 44 -40 44 -47 58 -38 69 10 12 9 14 -5 9 -11
-5 -22 2 -35 20 -10 14 -37 45 -60 69 -62 61 -59 85 4 37z m-10547 -162 c0 -4
-9 -13 -20 -20 -22 -13 -27 -3 -8 16 14 14 28 16 28 4z m10806 -29 c-4 -4 -11
-1 -16 7 -16 25 -11 35 7 17 9 -9 13 -20 9 -24z m25 -12 c-8 -5 -7 -13 4 -27
24 -32 17 -39 -9 -9 -19 21 -21 31 -13 40 7 7 16 11 21 8 4 -3 3 -9 -3 -12z
m-76 -21 c9 -16 13 -30 11 -30 -3 0 -12 14 -21 30 -9 17 -13 30 -11 30 3 0 12
-13 21 -30z m118 -43 c3 -8 1 -20 -4 -28 -6 -10 -9 -7 -9 14 0 29 5 35 13 14z
m-10928 -7 c-3 -5 -11 -10 -16 -10 -6 0 -7 5 -4 10 3 6 11 10 16 10 6 0 7 -4
4 -10z m10952 -47 c-3 -10 -5 -4 -5 12 0 17 2 24 5 18 2 -7 2 -21 0 -30z
m-1637 -35 c74 -22 156 -75 222 -142 71 -72 168 -209 168 -236 -1 -8 -53 -49
-117 -90 -202 -131 -397 -362 -454 -540 -7 -19 -18 -48 -26 -63 -22 -43 -43
-19 -44 52 -1 54 -1 55 -11 21 -11 -40 2 -98 33 -142 11 -14 19 -31 19 -37 0
-12 -92 -164 -112 -185 -54 -56 -247 -285 -265 -315 l-23 -36 0 38 c0 39 16
208 25 264 4 19 13 34 24 38 13 4 20 18 23 53 4 35 18 66 56 123 28 41 71 123
95 181 44 107 73 160 128 233 16 22 48 73 70 113 22 39 43 72 46 72 6 0 -6
-135 -14 -156 -3 -8 -1 -14 5 -14 15 0 45 125 39 162 -9 57 -25 88 -46 88 -10
0 -27 12 -37 27 -24 38 -56 69 -76 76 -14 5 -18 1 -18 -18 0 -17 -28 -52 -94
-120 -122 -123 -135 -124 -139 -9 -2 53 1 67 16 75 37 21 176 153 181 173 4
11 25 41 47 66 26 29 37 36 29 20 -7 -14 -19 -32 -26 -40 -15 -17 -12 -23 62
-125 l36 -50 -7 50 c-4 28 -15 80 -25 117 l-19 67 48 93 c26 51 50 103 53 114
5 18 11 21 49 17 24 -2 60 -9 79 -15z m-8380 -62 c0 -2 -7 -7 -16 -10 -8 -3
-12 -2 -9 4 6 10 25 14 25 6z m-90 -36 c-8 -5 -19 -10 -25 -10 -5 0 -3 5 5 10
8 5 20 10 25 10 6 0 3 -5 -5 -10z m271 -36 c17 -8 48 -31 70 -51 l39 -35 63
41 c35 22 68 41 74 41 6 0 16 -53 23 -130 l13 -129 -41 -53 c-22 -29 -60 -78
-83 -108 -24 -30 -32 -46 -20 -35 13 11 49 55 81 97 l59 77 5 -52 c10 -94 26
-288 41 -502 8 -115 22 -262 29 -325 28 -217 30 -266 13 -273 -11 -4 -14 -1
-11 7 7 18 -76 116 -169 199 -112 101 -137 167 -101 273 8 25 13 48 10 51 -4
4 -34 -88 -52 -159 -8 -35 -22 -36 -30 -4 -4 16 15 86 56 206 34 100 59 187
57 193 -2 7 -16 -24 -30 -68 -35 -108 -105 -302 -118 -327 -10 -19 -12 -18
-35 19 -12 22 -56 67 -96 100 -125 104 -347 325 -309 306 18 -8 79 -59 135
-112 126 -120 246 -225 251 -220 2 3 -35 39 -83 81 -318 282 -442 399 -442
415 0 22 58 131 115 218 79 119 190 218 291 261 66 28 140 27 195 -2z m9223
-79 c3 -9 0 -15 -9 -15 -8 0 -15 7 -15 15 0 8 4 15 9 15 5 0 11 -7 15 -15z
m-10664 -15 c0 -5 -4 -10 -10 -10 -5 0 -10 5 -10 10 0 6 5 10 10 10 6 0 10 -4
10 -10z m10840 -23 c0 -5 -4 -5 -10 -2 -5 3 -10 14 -10 23 0 15 2 15 10 2 5
-8 10 -19 10 -23z m-10835 -15 c-3 -3 -11 0 -18 7 -9 10 -8 11 6 5 10 -3 15
-9 12 -12z m9152 -4 c-3 -8 -6 -5 -6 6 -1 11 2 17 5 13 3 -3 4 -12 1 -19z
m1513 -10 c0 -5 -4 -8 -10 -8 -5 0 -10 10 -10 23 0 18 2 19 10 7 5 -8 10 -18
10 -22z m8 -59 c-3 -8 -7 -3 -11 10 -4 17 -3 21 5 13 5 -5 8 -16 6 -23z m189
9 c-3 -8 -6 -5 -6 6 -1 11 2 17 5 13 3 -3 4 -12 1 -19z m-243 -43 c3 -8 1 -15
-4 -15 -6 0 -10 7 -10 15 0 8 2 15 4 15 2 0 6 -7 10 -15z m-574 -53 c0 -9 -11
-24 -24 -32 -70 -42 -362 -279 -407 -328 -40 -45 -48 -50 -35 -25 24 47 99
139 173 210 67 66 270 206 284 197 5 -3 9 -13 9 -22z m-886 -7 c-4 -8 -11 -12
-16 -9 -6 4 -5 10 3 15 19 12 19 11 13 -6z m1555 -40 l0 -20 -9 20 c-5 11 -9
27 -9 35 -1 13 0 13 9 0 5 -8 9 -24 9 -35z m-1279 -152 c0 -5 -11 -21 -24 -36
-22 -25 -25 -26 -23 -9 0 12 4 19 7 17 4 -2 13 5 20 16 16 21 20 23 20 12z
m-177 -318 c-16 -34 -33 -46 -33 -24 0 6 -9 8 -22 4 l-23 -7 23 17 c12 9 27
13 34 9 8 -5 9 -2 5 10 -4 10 -3 15 3 11 6 -3 10 -1 10 4 0 6 4 11 10 11 5 0
2 -16 -7 -35z m-109 -39 c-8 -20 -24 -21 -24 0 0 8 5 12 10 9 6 -3 10 -1 10 6
0 7 2 10 5 7 3 -3 3 -13 -1 -22z m26 -15 c0 -5 -7 -11 -14 -14 -10 -4 -13 -1
-9 9 6 15 23 19 23 5z m28 -76 c-3 -3 -9 2 -12 12 -6 14 -5 15 5 6 7 -7 10
-15 7 -18z m-18 -16 c0 -6 -4 -7 -10 -4 -5 3 -10 11 -10 16 0 6 5 7 10 4 6 -3
10 -11 10 -16z m245 -49 c3 -5 1 -10 -4 -10 -6 0 -11 5 -11 10 0 6 2 10 4 10
3 0 8 -4 11 -10z m-7978 -128 l-11 -23 -14 26 c-10 21 -11 29 -1 41 19 23 40
-12 26 -44z m143 -364 c0 -6 3 -9 6 -6 7 8 56 -39 79 -75 10 -15 15 -30 11
-34 -3 -3 -6 -1 -6 7 0 10 -3 10 -15 0 -12 -10 -15 -10 -15 3 0 9 -4 19 -10
22 -6 4 -7 -1 -4 -12 5 -17 5 -17 -9 0 -11 13 -25 16 -60 14 -37 -4 -44 -2
-39 11 4 11 2 13 -8 7 -8 -5 -11 -4 -6 3 3 5 2 12 -4 14 -6 2 0 9 12 17 21 13
22 13 10 -1 -10 -13 -10 -17 4 -22 9 -4 19 -4 22 -1 3 3 0 5 -6 5 -12 0 -6 26
11 48 12 15 27 16 27 0z m237 -120 c-3 -7 -5 -2 -5 12 0 14 2 19 5 13 2 -7 2
-19 0 -25z m0 -50 c-3 -7 -5 -2 -5 12 0 14 2 19 5 13 2 -7 2 -19 0 -25z m20
-150 c-3 -7 -5 -2 -5 12 0 14 2 19 5 13 2 -7 2 -19 0 -25z m-1212 -193 c-207
-97 -275 -127 -275 -120 0 6 50 30 185 89 28 12 61 27 75 33 14 7 30 12 35 12
6 0 -3 -7 -20 -14z"/>
<path d="M7740 14074 c0 -37 2 -65 4 -63 8 8 12 120 4 125 -4 3 -8 -25 -8 -62z"/>
<path d="M7741 13984 c0 -11 3 -14 6 -6 3 7 2 16 -1 19 -3 4 -6 -2 -5 -13z"/>
<path d="M7751 13744 c0 -11 3 -14 6 -6 3 7 2 16 -1 19 -3 4 -6 -2 -5 -13z"/>
<path d="M7751 13608 l1 -113 14 50 c10 39 11 63 3 113 -6 34 -13 62 -15 62
-2 0 -4 -51 -3 -112z"/>
<path d="M7766 12943 c-10 -97 -19 -448 -11 -441 12 11 43 203 51 312 5 78 4
98 -10 117 -19 28 -21 55 -3 62 8 4 6 6 -4 6 -12 1 -18 -12 -23 -56z"/>
<path d="M9253 12375 c3 -10 147 -305 299 -613 44 -89 85 -165 89 -168 13 -8
1 21 -66 152 -34 66 -86 177 -115 245 -65 153 -99 221 -147 297 -50 79 -64 99
-60 87z"/>
<path d="M9370 12311 c0 -6 4 -13 10 -16 6 -3 7 1 4 9 -7 18 -14 21 -14 7z"/>
<path d="M9386 12271 c-4 -7 -5 -15 -2 -18 9 -9 19 4 14 18 -4 11 -6 11 -12 0z"/>
<path d="M9401 12226 c-1 -20 67 -196 118 -306 17 -36 30 -59 31 -53 0 14 -65
191 -99 268 -49 110 -50 111 -50 91z"/>
<path d="M9556 11837 c3 -10 9 -15 12 -12 3 3 0 11 -7 18 -10 9 -11 8 -5 -6z"/>
<path d="M7742 11278 l-2 -167 -57 -11 c-57 -12 -421 -162 -405 -168 4 -1 84
27 177 64 265 103 243 96 265 74 19 -19 20 -35 21 -227 0 -115 4 -230 8 -258
4 -27 5 69 2 214 l-4 263 59 -45 c44 -34 90 -56 178 -86 66 -23 121 -39 123
-37 3 2 -12 9 -31 16 -43 14 -47 30 -8 31 l27 0 -25 11 c-104 45 -260 123
-287 144 l-33 25 -3 162 -3 162 -2 -167z m224 -313 c10 -8 14 -15 8 -15 -5 0
-19 7 -30 15 -10 8 -14 15 -8 15 5 0 19 -7 30 -15z"/>
<path d="M9560 11323 c0 -5 10 -18 23 -29 l22 -19 -20 25 c-11 14 -21 27 -22
29 -2 2 -3 0 -3 -6z"/>
<path d="M9609 11252 c6 -12 16 -24 22 -28 8 -4 8 -1 0 14 -6 12 -16 24 -22
28 -8 4 -8 1 0 -14z"/>
<path d="M6484 11221 c-17 -10 -93 -99 -169 -197 -77 -99 -152 -193 -167 -210
-44 -48 -117 -148 -112 -153 2 -3 12 6 22 18 9 12 39 44 66 69 53 52 134 135
190 197 52 57 216 274 216 285 0 14 -11 12 -46 -9z"/>
<path d="M8830 10963 c43 -54 114 -138 156 -188 42 -49 94 -117 115 -149 22
-33 39 -53 39 -45 0 27 -61 112 -167 233 -58 65 -128 147 -156 182 -28 35 -54
64 -59 64 -4 0 28 -44 72 -97z"/>
<path d="M7230 10920 c-8 -5 -10 -10 -5 -10 6 0 17 5 25 10 8 5 11 10 5 10 -5
0 -17 -5 -25 -10z"/>
<path d="M8120 10893 c0 -5 29 -21 65 -35 36 -14 65 -22 65 -17 0 10 -32 28
-69 39 -14 4 -34 11 -43 15 -10 4 -18 3 -18 -2z"/>
<path d="M8300 10805 c14 -8 34 -14 45 -14 18 0 17 1 -5 14 -14 8 -34 14 -45
14 -18 0 -17 -1 5 -14z"/>
<path d="M6670 10705 c-14 -8 -20 -14 -15 -14 6 0 21 6 35 14 14 8 21 14 15
14 -5 0 -21 -6 -35 -14z"/>
<path d="M8585 10690 c3 -5 11 -10 16 -10 6 0 7 5 4 10 -3 6 -11 10 -16 10 -6
0 -7 -4 -4 -10z"/>
<path d="M8927 10642 c3 -12 9 -25 14 -28 14 -8 11 10 -6 32 -13 18 -14 18 -8
-4z"/>
<path d="M9008 10613 c0 -27 -2 -61 -2 -76 -1 -15 2 -33 6 -40 4 -7 8 27 8 76
0 91 -9 122 -12 40z"/>
<path d="M8905 10585 c22 -19 48 -42 58 -51 24 -21 31 -13 16 20 -9 18 -18 25
-30 21 -11 -4 -27 4 -43 20 -14 14 -29 25 -33 25 -4 0 10 -16 32 -35z"/>
<path d="M9153 10600 c0 -14 -3 -61 -7 -105 -4 -44 -5 -78 -2 -74 10 10 24
174 16 188 -6 11 -8 8 -7 -9z"/>
<path d="M8667 10578 c-6 -40 5 -55 45 -63 17 -4 26 -10 20 -14 -6 -4 -8 -12
-3 -19 5 -8 14 -2 31 20 28 37 21 53 -36 85 -51 28 -51 28 -57 -9z"/>
<path d="M9068 10595 c5 -11 12 -27 15 -35 5 -13 6 -13 6 1 1 8 -6 24 -15 35
-15 19 -15 19 -6 -1z"/>
<path d="M9198 10544 c-5 -4 -7 -35 -7 -68 l1 -61 9 55 c10 59 9 87 -3 74z"/>
<path d="M8823 10474 c-49 -115 -93 -286 -98 -376 0 -18 19 -11 20 7 9 87 48
249 82 333 29 74 26 107 -4 36z"/>
<path d="M9235 10510 c-4 -7 -1 -16 6 -21 9 -6 10 -9 2 -9 -15 0 -9 -91 9
-122 12 -21 13 -16 16 50 2 51 -1 78 -12 93 -10 14 -16 17 -21 9z"/>
<path d="M9302 10430 c0 -14 2 -19 5 -12 2 6 2 18 0 25 -3 6 -5 1 -5 -13z"/>
<path d="M8664 10408 c-6 -7 -7 -31 -4 -53 l5 -40 8 49 c8 53 5 64 -9 44z"/>
<path d="M9301 10363 c0 -23 4 -45 9 -48 11 -7 11 16 0 60 -7 28 -8 28 -9 -12z"/>
<path d="M9367 10364 c-10 -56 -8 -104 2 -104 14 0 25 105 14 125 -8 14 -11
10 -16 -21z"/>
<path d="M8947 10347 c-9 -23 -20 -112 -13 -106 7 7 28 111 22 116 -2 2 -6 -3
-9 -10z"/>
<path d="M9410 10302 c0 -27 8 -64 17 -83 l17 -34 7 37 c7 44 0 98 -12 98 -5
0 -9 7 -9 15 0 8 -4 15 -10 15 -5 0 -10 -22 -10 -48z m30 -33 c0 -16 -4 -29
-10 -29 -5 0 -10 16 -10 36 0 21 4 33 10 29 6 -3 10 -19 10 -36z"/>
<path d="M9205 10184 c-8 -84 0 -114 10 -37 3 26 8 60 10 75 2 15 1 30 -4 32
-5 3 -12 -28 -16 -70z"/>
<path d="M9484 10218 c4 -13 10 -40 13 -60 3 -21 13 -43 21 -50 13 -11 15 -10
9 12 -4 14 -12 46 -18 73 -6 26 -15 47 -21 47 -6 0 -8 -9 -4 -22z"/>
<path d="M5458 10192 c-9 -4 -39 -36 -68 -72 -28 -36 -57 -72 -63 -80 -79 -96
-171 -285 -147 -300 8 -5 8 -15 1 -31 -15 -39 -63 -248 -59 -260 4 -13 46 100
59 159 5 24 13 51 18 60 9 15 10 14 11 -5 0 -12 -4 -25 -10 -28 -5 -3 -10 -16
-10 -28 1 -21 1 -21 15 -3 8 10 46 74 85 142 39 67 82 133 95 146 14 13 25 28
25 33 0 6 12 24 26 40 28 32 68 114 61 122 -3 2 -20 -18 -38 -46 -18 -28 -35
-49 -37 -47 -1 2 10 32 27 67 31 67 49 139 35 138 -5 0 -16 -3 -26 -7z m-22
-64 c-9 -12 -16 -19 -16 -15 0 11 24 47 28 42 2 -2 -3 -14 -12 -27z m-118
-273 c-6 -14 -13 -23 -15 -21 -5 5 15 46 22 46 3 0 -1 -11 -7 -25z"/>
<path d="M9151 10095 c-7 -52 -21 -125 -32 -162 -10 -38 -19 -75 -18 -83 1
-23 30 49 45 113 14 60 31 227 22 227 -2 0 -10 -43 -17 -95z"/>
<path d="M9236 10121 c-4 -24 -5 -46 -2 -48 7 -7 19 63 14 79 -3 7 -8 -7 -12
-31z"/>
<path d="M9355 10088 c10 -52 -11 -166 -51 -275 -18 -51 -32 -94 -31 -94 1 -1
12 -3 25 -4 16 -2 27 6 36 24 19 36 44 160 51 253 6 70 5 80 -15 105 l-22 28
7 -37z"/>
<path d="M9540 10100 c0 -5 3 -16 6 -24 5 -13 9 -14 20 -5 20 17 17 35 -6 36
-11 1 -20 -2 -20 -7z"/>
<path d="M5553 10081 c-13 -11 -23 -22 -23 -26 0 -11 -98 -140 -137 -181 -7
-7 -13 -17 -13 -21 0 -5 -8 -18 -19 -29 -24 -27 -44 -64 -37 -71 3 -3 10 5 14
18 5 13 12 23 16 21 4 -1 30 26 59 62 131 162 147 185 140 202 -5 12 -3 15 6
9 8 -4 17 -2 22 6 21 33 5 38 -28 10z"/>
<path d="M9056 9972 c-18 -65 -21 -97 -7 -72 12 21 34 120 29 126 -3 2 -13
-22 -22 -54z"/>
<path d="M5257 9553 c-4 -3 -7 -11 -7 -17 0 -6 5 -5 12 2 6 6 9 14 7 17 -3 3
-9 2 -12 -2z"/>
<path d="M5041 9384 c0 -11 3 -14 6 -6 3 7 2 16 -1 19 -3 4 -6 -2 -5 -13z"/>
<path d="M10132 8424 c-18 -37 -31 -68 -29 -70 2 -3 19 25 36 62 17 37 30 68
28 70 -1 2 -18 -26 -35 -62z"/>
<path d="M10055 7921 c-3 -5 -2 -12 3 -15 5 -3 9 1 9 9 0 17 -3 19 -12 6z"/>
<path d="M6330 7260 c-9 -6 -10 -10 -3 -10 6 0 15 5 18 10 8 12 4 12 -15 0z"/>
<path d="M6516 7203 c-6 -14 -5 -15 5 -6 7 7 10 15 7 18 -3 3 -9 -2 -12 -12z"/>
<path d="M6563 7185 c0 -7 6 -11 14 -8 7 3 13 6 13 8 0 2 -6 5 -13 8 -8 3 -14
-1 -14 -8z"/>
<path d="M6610 7156 c0 -2 7 -7 16 -10 8 -3 12 -2 9 4 -6 10 -25 14 -25 6z"/>
<path d="M8275 6699 c-9 -14 -2 -20 14 -10 8 6 9 11 3 15 -6 3 -14 1 -17 -5z"/>
<path d="M8237 6676 c-4 -10 -1 -13 8 -9 8 3 12 9 9 14 -7 12 -11 11 -17 -5z"/>
<path d="M8282 6656 c7 -8 17 -12 22 -9 4 3 2 9 -5 14 -22 13 -31 11 -17 -5z"/>
<path d="M10170 9455 c0 -5 4 -16 9 -23 6 -11 10 -10 15 4 3 9 4 19 1 22 -3 3
-5 -1 -5 -9 0 -11 -2 -11 -10 1 -5 8 -10 11 -10 5z"/>
<path d="M4753 8034 c-59 -35 -54 -41 5 -8 56 33 58 34 46 34 -5 0 -28 -12
-51 -26z"/>
<path d="M10525 8120 c3 -5 11 -10 16 -10 6 0 7 5 4 10 -3 6 -11 10 -16 10 -6
0 -7 -4 -4 -10z"/>
<path d="M10490 8090 c0 -5 5 -10 11 -10 5 0 7 5 4 10 -3 6 -8 10 -11 10 -2 0
-4 -4 -4 -10z"/>
<path d="M5612 6970 c-1 -36 -9 -110 -17 -164 -8 -55 -13 -101 -11 -103 10
-11 37 191 34 257 l-4 75 -2 -65z"/>
<path d="M5572 6670 c0 -14 2 -19 5 -12 2 6 2 18 0 25 -3 6 -5 1 -5 -13z"/>
<path d="M5496 5943 c-6 -14 -5 -15 5 -6 7 7 10 15 7 18 -3 3 -9 -2 -12 -12z"/>
<path d="M6350 5665 c6 -8 9 -24 5 -37 -5 -17 -4 -19 4 -8 8 12 13 11 33 -5
18 -16 17 -13 -5 13 -15 19 -27 38 -27 43 0 5 -5 9 -11 9 -8 0 -8 -4 1 -15z"/>
<path d="M10778 7733 c12 -2 30 -2 40 0 9 3 -1 5 -23 4 -22 0 -30 -2 -17 -4z"/>
<path d="M11801 7094 c0 -11 3 -14 6 -6 3 7 2 16 -1 19 -3 4 -6 -2 -5 -13z"/>
<path d="M11812 7040 c0 -19 2 -27 5 -17 2 9 2 25 0 35 -3 9 -5 1 -5 -18z"/>
<path d="M12032 7020 c9 -27 28 -50 28 -35 0 9 -30 65 -35 65 -2 0 1 -14 7
-30z"/>
<path d="M11885 6320 c3 -5 8 -10 11 -10 2 0 4 5 4 10 0 6 -5 10 -11 10 -5 0
-7 -4 -4 -10z"/>
<path d="M11410 5674 c0 -8 5 -12 10 -9 6 3 10 10 10 16 0 5 -4 9 -10 9 -5 0
-10 -7 -10 -16z"/>
<path d="M11402 5630 c0 -14 3 -34 7 -44 7 -19 8 -19 13 2 4 12 2 20 -2 17 -5
-3 -11 7 -13 22 -4 26 -4 26 -5 3z"/>
<path d="M12510 5594 c0 -13 18 -39 24 -34 2 3 -2 14 -10 24 -8 11 -14 16 -14
10z"/>
<path d="M12502 5530 c-7 -11 -8 -20 -3 -20 9 0 24 30 18 36 -1 2 -8 -6 -15
-16z"/>
<path d="M11003 5395 c0 -22 2 -30 4 -17 2 12 2 30 0 40 -3 9 -5 -1 -4 -23z"/>
<path d="M12489 5298 c-22 -43 -73 -96 -295 -305 -65 -62 -128 -126 -139 -143
-23 -34 -36 -39 -28 -10 8 29 -4 25 -21 -7 -9 -17 -15 -22 -16 -12 0 23 33 57
50 51 12 -4 13 -2 3 9 -11 14 4 57 46 129 5 8 19 36 32 62 13 26 27 44 33 41
5 -3 6 -1 2 5 -3 6 2 25 13 44 10 18 22 44 25 58 l6 25 -12 -25 c-7 -14 -15
-27 -19 -30 -4 -3 -20 -32 -37 -65 -17 -33 -69 -130 -116 -215 -47 -85 -86
-158 -86 -161 0 -6 94 -39 111 -39 5 0 9 6 9 13 0 7 24 35 53 62 54 52 130
140 242 282 55 68 162 227 169 251 12 36 -2 25 -25 -20z"/>
<path d="M11021 5264 c0 -11 3 -14 6 -6 3 7 2 16 -1 19 -3 4 -6 -2 -5 -13z"/>
<path d="M11760 4501 c0 -6 10 -15 23 -20 28 -11 48 -34 50 -58 1 -16 8 -18
66 -12 37 3 100 2 141 -2 103 -11 190 -11 190 0 0 4 -57 11 -127 13 -131 5
-146 9 -330 85 -7 3 -13 0 -13 -6z"/>
<path d="M12678 3713 c7 -3 16 -2 19 1 4 3 -2 6 -13 5 -11 0 -14 -3 -6 -6z"/>
<path d="M12534 3380 c-16 -6 -15 -7 5 -13 14 -3 29 0 37 8 12 12 11 14 -5 12
-11 0 -27 -4 -37 -7z"/>
<path d="M12600 3370 c-9 -6 -10 -10 -3 -10 6 0 15 5 18 10 8 12 4 12 -15 0z"/>
<path d="M12270 3220 c-13 -8 -13 -10 2 -10 9 0 20 5 23 10 8 13 -5 13 -25 0z"/>
<path d="M12514 3215 c8 -8 17 -15 19 -15 3 0 7 7 11 15 4 11 -2 15 -20 15
-23 0 -24 -2 -10 -15z"/>
<path d="M12570 3220 c8 -5 24 -10 34 -10 26 0 18 6 -19 14 -22 5 -26 4 -15
-4z"/>
<path d="M12460 3206 c0 -2 7 -7 16 -10 8 -3 12 -2 9 4 -6 10 -25 14 -25 6z"/>
<path d="M12567 3199 c7 -7 15 -10 18 -7 3 3 -2 9 -12 12 -14 6 -15 5 -6 -5z"/>
<path d="M12797 3179 c7 -7 15 -10 18 -7 3 3 -2 9 -12 12 -14 6 -15 5 -6 -5z"/>
<path d="M12336 2835 c27 -20 51 -20 34 0 -7 8 -22 15 -33 15 -20 0 -20 0 -1
-15z"/>
<path d="M12390 2810 c0 -5 48 -61 106 -123 66 -70 130 -151 172 -217 78 -125
71 -114 77 -109 2 3 -6 21 -19 40 -13 18 -48 73 -79 121 -31 48 -97 129 -147
179 -49 51 -90 96 -90 100 0 4 -4 11 -10 14 -5 3 -10 1 -10 -5z"/>
<path d="M12861 2468 c1 -18 4 -44 9 -58 5 -17 7 -8 6 32 -1 32 -4 58 -8 58
-5 0 -8 -15 -7 -32z"/>
<path d="M13146 2447 c3 -10 9 -15 12 -12 3 3 0 11 -7 18 -10 9 -11 8 -5 -6z"/>
<path d="M13190 2383 c0 -6 8 -17 18 -24 16 -13 16 -13 2 6 -8 11 -16 22 -17
24 -2 2 -3 0 -3 -6z"/>
<path d="M12741 2326 c-13 -16 -2 -29 16 -18 7 4 8 13 4 20 -6 10 -10 10 -20
-2z"/>
<path d="M12970 2266 c0 -9 5 -16 10 -16 6 0 10 4 10 9 0 6 -4 13 -10 16 -5 3
-10 -1 -10 -9z"/>
<path d="M3576 7121 c-4 -7 -5 -15 -2 -18 9 -9 19 4 14 18 -4 11 -6 11 -12 0z"/>
<path d="M4411 7054 c0 -11 3 -14 6 -6 3 7 2 16 -1 19 -3 4 -6 -2 -5 -13z"/>
<path d="M3541 6984 c0 -11 3 -14 6 -6 3 7 2 16 -1 19 -3 4 -6 -2 -5 -13z"/>
<path d="M3471 6874 c0 -11 3 -14 6 -6 3 7 2 16 -1 19 -3 4 -6 -2 -5 -13z"/>
<path d="M3461 6834 c0 -11 3 -14 6 -6 3 7 2 16 -1 19 -3 4 -6 -2 -5 -13z"/>
<path d="M3438 6732 c-25 -102 -41 -192 -36 -197 2 -3 10 26 17 63 7 37 20 95
28 130 8 35 13 65 11 67 -2 3 -12 -26 -20 -63z"/>
<path d="M3572 6735 c0 -16 2 -22 5 -12 2 9 2 23 0 30 -3 6 -5 -1 -5 -18z"/>
<path d="M3391 6504 c0 -11 3 -14 6 -6 3 7 2 16 -1 19 -3 4 -6 -2 -5 -13z"/>
<path d="M3059 5613 c-13 -16 -12 -17 4 -4 9 7 17 15 17 17 0 8 -8 3 -21 -13z"/>
<path d="M2275 4069 c-4 -6 -5 -12 -2 -15 2 -3 7 2 10 11 7 17 1 20 -8 4z"/>
<path d="M3010 3476 c0 -2 7 -7 16 -10 8 -3 12 -2 9 4 -6 10 -25 14 -25 6z"/>
<path d="M2987 3459 c7 -7 15 -10 18 -7 3 3 -2 9 -12 12 -14 6 -15 5 -6 -5z"/>
<path d="M10251 7664 c0 -11 3 -14 6 -6 3 7 2 16 -1 19 -3 4 -6 -2 -5 -13z"/>
<path d="M10261 7564 c0 -11 3 -14 6 -6 3 7 2 16 -1 19 -3 4 -6 -2 -5 -13z"/>
<path d="M10282 7465 c0 -16 2 -22 5 -12 2 9 2 23 0 30 -3 6 -5 -1 -5 -18z"/>
<path d="M6770 6856 c0 -3 9 -10 20 -16 11 -6 20 -8 20 -6 0 3 -9 10 -20 16
-11 6 -20 8 -20 6z"/>
<path d="M7220 6674 c0 -8 5 -12 10 -9 6 4 8 11 5 16 -9 14 -15 11 -15 -7z"/>
<path d="M8762 6510 c0 -14 2 -19 5 -12 2 6 2 18 0 25 -3 6 -5 1 -5 -13z"/>
<path d="M2535 3019 c-140 -11 -143 -12 -185 -50 -114 -102 -173 -166 -196
-211 l-26 -51 49 6 c26 3 110 29 186 56 76 28 175 62 220 75 134 39 191 64
236 102 49 43 48 53 -3 24 -50 -27 -57 -25 -16 5 19 14 40 25 47 25 18 0 16
17 -3 24 -21 8 -171 5 -309 -5z"/>
<path d="M3065 2863 c-67 -17 -147 -48 -193 -74 -72 -40 -205 -139 -198 -147
4 -3 19 6 34 19 79 73 243 153 353 174 67 12 74 13 87 14 7 1 10 6 7 11 -6 10
-54 12 -90 3z"/>
<path d="M3786 2427 c3 -10 9 -15 12 -12 3 3 0 11 -7 18 -10 9 -11 8 -5 -6z"/>
<path d="M12106 2805 c-11 -8 -15 -15 -10 -15 6 0 19 7 30 15 10 8 15 14 9 14
-5 0 -19 -6 -29 -14z"/>
<path d="M13030 2761 c0 -10 39 -36 45 -29 2 2 -8 11 -21 21 -13 10 -24 13
-24 8z"/>
<path d="M13110 2681 c0 -5 5 -13 10 -16 6 -3 10 -2 10 4 0 5 -4 13 -10 16 -5
3 -10 2 -10 -4z"/>
<path d="M3706 1485 c-9 -26 -7 -32 5 -12 6 10 9 21 6 23 -2 3 -7 -2 -11 -11z"/>
<path d="M3676 1405 c-9 -26 -7 -32 5 -12 6 10 9 21 6 23 -2 3 -7 -2 -11 -11z"/>
<path d="M3796 1354 c-26 -58 -28 -92 -5 -78 5 3 7 10 3 15 -3 5 0 17 7 25 10
13 14 12 30 -5 10 -10 21 -34 24 -53 6 -33 45 -105 45 -83 -1 24 -30 217 -35
225 -2 4 -13 10 -23 12 -15 4 -24 -7 -46 -58z"/>
<path d="M3705 760 c-3 -5 -1 -10 4 -10 6 0 11 5 11 10 0 6 -2 10 -4 10 -3 0
-8 -4 -11 -10z"/>
<path d="M3766 722 c-3 -5 1 -9 9 -9 8 0 12 4 9 9 -3 4 -7 8 -9 8 -2 0 -6 -4
-9 -8z"/>
<path d="M12550 74 c0 -3 20 -17 45 -33 24 -15 42 -31 38 -35 -3 -3 3 -6 15
-6 36 0 25 13 -38 46 -33 17 -60 30 -60 28z"/>
</g>
</svg>
